<svg width="555" height="572" viewBox="0 0 555 572" fill="none" xmlns="http://www.w3.org/2000/svg">
<path d="M349.117 483.827C386.993 483.827 424.463 479.73 461.772 479.73C468.192 479.73 481.239 480.519 471.672 490.086C459.25 502.507 439.987 503.033 423.538 504.765C413.196 505.853 403.565 508.406 393.155 508.406C383.255 508.406 373.355 508.406 363.455 508.406C347.697 508.406 363.295 514.551 371.648 514.551C386.64 514.551 399.98 513.531 414.662 510.91C423.492 509.333 433.359 506.358 442.313 506.358C451.035 506.358 463.145 503.989 470.875 508.406C475.214 510.886 485.253 519.658 477.703 524.792C466.598 532.344 439.704 526.841 426.041 526.841C413.524 526.841 401.007 526.841 388.489 526.841C382.301 526.841 367.576 527.12 363.91 532.985C361.924 536.164 359.094 534.376 359.359 539.13C359.696 545.207 369.677 543.218 373.81 544.251C388.732 547.981 406.619 545.275 421.944 545.275C442.731 545.275 463.517 545.275 484.303 545.275" stroke="#FFEB7F" stroke-width="30" stroke-linecap="round"/>
<path d="M42.1914 101.071C35.9995 106.679 38.4542 117.126 30.9288 122.227C24.2907 126.728 21.9542 110.46 21.1261 108.627C17.5903 100.799 19.6661 102.218 19.6661 110.138C19.6661 119.087 19.2651 119.92 15.9119 110.978C13.5859 104.775 14.0348 98.3986 14.0348 92.0041C14.0348 84.6084 14.0075 107.875 14.0348 110.474C14.2327 129.277 14.0348 148.087 14.0348 166.891C14.0348 170.436 14.0348 175.267 14.0348 168.402C14.0348 161.462 14.0348 154.521 14.0348 147.581C14.0348 137.674 15.6626 129.64 18.7276 120.045C22.6169 107.868 23.0282 110.395 25.4017 122.815C29.2388 142.894 29.2527 163.183 30.8245 183.429C31.8095 196.117 30.9288 175.249 30.9288 172.431C30.9288 150.501 29.0517 128.592 29.0517 106.612C29.0517 97.6975 29.339 107.149 30.0945 111.146C32.472 123.723 32.1751 136.459 33.7445 149.092C33.8319 149.796 35.5163 161.749 36.143 161.182C38.234 159.288 36.5601 150.682 36.5601 148.589C36.5601 140.473 36.5601 132.358 36.5601 124.242C36.5601 120.148 20.2033 84.8169 25.4017 82.6013C30.6851 80.3496 40.7916 102.48 41.1486 107.284C41.9008 117.405 42.13 127.538 42.1914 137.675C42.2365 145.118 42.1914 152.563 42.1914 160.006C42.1914 169.585 42.6448 140.839 43.6514 131.294C45.0963 117.595 46.8204 101.862 53.4541 88.9818C54.5677 86.8196 55.3312 82.3395 55.3312 87.1348C55.3312 97.0413 55.3312 106.948 55.3312 116.854C55.3312 128.395 56.2547 162.958 57.2083 151.443C59.0251 129.504 59.8842 109.335 67.3238 88.1423C68.9533 83.5004 69.9641 81.7446 70.4523 87.0509C71.3513 96.8204 72.2252 106.352 72.2252 116.183C72.2252 128.431 72.8311 140.575 73.998 152.786C74.1116 153.975 74.1023 144.006 74.1023 141.788C74.1023 124.803 77.901 108.7 79.6293 92.0041C79.6542 91.764 79.2965 85.7684 80.6722 86.2113C84.983 87.5995 81.6107 117.075 81.6107 121.556C81.6107 136.873 81.2063 152.098 80.1507 167.394C94.3333 183.429 71.1851 184.766 65.2683 178.812C55.3698 168.851 63.2007 153.889 53.4541 144.391C52.614 143.572 48.6002 162.231 51.577 166.891C54.8619 172.033 64.5694 171.383 66.4896 165.715C70.7076 153.264 75.7778 136.926 56.5826 132.805C37.578 128.726 41.3383 181.718 51.577 189.96C63.782 199.786 100.161 171.278 102.676 164.624C104.343 160.214 89.0149 129.363 87.0335 143.719C86.2981 149.047 80.4016 159.701 84.6349 164.624C86.7165 167.044 93.8045 153.545 94.3333 152.283C104.242 128.637 104.136 106.231 104.136 81.7618C104.136 74.3541 103.033 84.3554 102.676 86.4632C100.941 96.7041 100.445 107.034 100.382 117.358C100.334 125.122 97.5248 136.944 100.799 144.559C102.825 149.272 104.113 142.399 104.136 141.201C104.349 129.909 104.282 118.575 104.136 107.284C104.09 103.752 104.163 78.7102 97.0447 77.5641C96.9621 77.5508 96.6276 98.0523 96.6276 99.2241C96.6276 112.317 96.4078 125.422 96.6276 138.514C96.6742 141.293 98.9286 150.43 104.97 145.566C111.189 140.56 111.326 129.316 112.687 122.899C115.147 111.302 112.687 89.3232 112.687 77.5641C112.687 62.412 110.724 118.722 109.037 133.813C108.666 137.136 102.192 168.905 112.479 168.905C130.416 172.431 122.073 165.715 122.073 142.964C126.351 129.188 124.784 114.81 124.784 100.735C124.784 90.4757 123.002 116.19 122.907 117.526C122.853 118.292 119.793 145.219 124.367 141.537C129.748 137.205 126.661 122.792 126.661 117.862C126.661 106.003 130.103 94.4209 130.416 82.6013C130.675 72.7798 138.021 73.6439 137.924 81.7618C136.047 125.25 128.538 117.645 128.538 134.485C128.538 143.06 133.452 158.534 136.047 166.891C138.213 173.865 137.343 155.917 137.924 154.046C141.076 143.895 140.784 134.783 136.047 125.25" stroke="#01A077" stroke-width="22" stroke-linecap="round"/>
<path d="M218.644 44.0407C216.758 45.4917 207.164 50.607 212.7 50.607C215.735 50.607 218.4 49.4533 221.253 49.2937C223.537 49.166 224.5 47.5653 221.833 48.0534C212.441 49.7722 224.355 48.2001 228.212 46.959C233.706 45.1913 241.584 44.7715 246.478 41.4871C249.742 39.297 239.509 45.1314 235.895 46.6672C231.423 48.5677 222.82 50.4888 219.514 53.8172C218.763 54.5731 230.613 52.7962 232.416 51.9203C236.684 49.8462 249.352 50.0637 245.753 46.959C245.523 46.7599 240.738 50.607 239.157 50.607C237.321 50.607 242.834 50.657 244.666 50.5341C249.628 50.2011 254.351 47.6541 258.946 45.9376C264.342 43.922 269.743 41.9527 274.603 38.7876M274.603 38.7876C275.386 38.2778 281.361 33.5482 281.272 33.5345C276.36 32.7739 262.316 40.2836 273.733 35.4314C275.314 34.7594 285.829 29.5947 283.084 29.5947C276.792 29.5947 270.96 34.2587 264.382 34.9207C250.811 36.2867 272.979 30.5323 264.817 29.6676C262.309 29.4018 254.863 31.3253 257.351 30.9079C258.738 30.6753 260.049 28.4273 261.121 28.4273C268.542 28.4273 276.658 30.9079 284.461 30.9079C288.844 30.9079 274.778 38.1641 288.665 35.8692C296.56 34.5646 305.029 32.2975 311.208 27.114C313.859 24.8904 306.588 30.8074 305.772 31.4916C299.827 36.4782 305.707 36.887 310.049 34.7018C311.336 34.0538 317.212 29.4952 316.355 29.6676C314.663 30.0082 313.857 31.1828 313.383 32.8049C312.351 36.3378 319.084 33.9057 320.559 33.5345C323.423 32.8137 328.644 28.7828 327.953 29.2299C322.494 32.7622 317.153 38.0983 313.455 43.457C310.11 48.3058 318.506 45.2877 319.834 44.3325C322.264 42.5857 326.046 39.3475 329.33 40.1738C330.176 40.3868 324.296 45.2159 328.822 45.3539C334.187 45.5175 348.557 33.5345 341.29 33.5345C334.725 33.5345 344.178 20.7236 337.086 21.715C327.629 23.0371 313.988 32.7546 307.729 39.9549C304.959 43.1412 269.265 45.5621 274.603 38.7876ZM274.603 38.7876C280.23 31.6466 316.545 25.6468 323.748 19.964C325.273 18.7613 328.054 17.2659 324.981 19.6722C317.821 25.2771 333.398 16.9813 329.257 12.814C324.147 7.66998 311.006 28.8842 311.281 21.4232C311.329 20.1168 313.939 13.389 311.208 15.2216C307.91 17.4349 309.293 19.4106 308.599 15.2216C308.106 12.2423 300.699 13.001 302.22 18.3589C302.958 20.9587 315.549 23.1046 303.887 19.8181C300.156 18.7666 296.127 19.0885 292.29 19.0885C290.461 19.0885 296.116 18.9457 297.726 19.8181C306.374 24.505 319.803 23.0283 329.547 23.0283C335.951 23.0283 350.647 41.0684 340.565 43.9677C334.981 45.5735 329.674 43.735 326.358 39.4442C321.606 33.2951 330.973 35.8042 333.462 37.4743" stroke="#F7D002" stroke-width="21" stroke-linecap="round"/>
<path d="M351.619 51C394.738 83.2852 439.064 113.755 479.184 148.929C483.203 152.453 495.372 159.395 492.591 165.811C487.5 177.556 465.016 186.49 454.092 191.53C427.079 203.995 396.621 212.06 368.091 221.051C358.804 223.977 352.692 226 343 226" stroke="black" stroke-width="10" stroke-linecap="round"/>
<path d="M412 165C396.015 179.747 386.075 182.981 364.838 187.106C349.664 190.053 336.141 185.273 323 179.211" stroke="black" stroke-width="10" stroke-linecap="round"/>
<path d="M355 46.5161C355 35.7178 352.97 32.7914 347.318 23.6846C344.063 18.4404 335.807 10.6263 328.689 10.1613C319.556 9.56476 311.581 7 302.186 7C293.21 7 292.775 7.30807 292.775 15.6057C292.775 23.019 301.437 21.6843 303.05 26.8459C303.367 27.861 306.605 29.129 305.45 29.129C301.929 29.129 298.408 29.129 294.888 29.129C289.61 29.129 283.017 26.8938 278.563 24.3871C273.34 21.4476 267.234 23.8357 261.662 22.0161C257.705 20.7238 251.147 20.4648 246.97 21.3136C238.477 23.0396 253.063 31.254 255.613 32.2903C258.181 33.3342 262.061 35.4272 264.255 37.0323C265.497 37.941 243.061 38.6129 239.96 38.6129C231.058 38.6129 210.871 29.0942 208.176 42.6523C206.14 52.8923 222.297 56 230.55 56" stroke="black" stroke-width="10" stroke-linecap="round"/>
<path d="M550 12.9731C548.406 -0.512731 520.509 5.63262 515.458 12.9731C508.362 23.2838 491.11 20.7162 480 20.7162" stroke="black" stroke-width="10" stroke-linecap="round"/>
<path d="M515 67.3942C509.257 57.233 487.152 56.5558 478.367 63.9625C471.048 70.1333 456.448 67.3942 447 67.3942" stroke="black" stroke-width="10" stroke-linecap="round"/>
<path d="M146 73.3812C134.269 71.1446 124.202 69 112.32 69C100.555 69 93.3135 74.8081 83.0174 78.9793C73.3739 82.8862 54.3633 81.3915 44.2308 79.8312C36.3612 78.6194 32.5863 73.3812 24.4119 73.3812C19.7316 73.3812 8.37329 70.916 8.11914 77.2755C7.85107 83.9833 8.11914 90.7655 8.11914 97.4776C8.11914 117.193 8.11914 136.908 8.11914 156.623C8.11914 163.195 8.11914 169.767 8.11914 176.339C8.11914 187.89 10.4114 181.994 17.9678 186.196C26.5194 190.952 38.339 196.973 48 199.948C54.6165 201.986 63.6219 200.435 70.4938 200.435C77.4775 200.435 79.6942 195.346 85.8139 193.985C91.0984 192.81 95.0917 185.376 100.04 185.101C105.092 184.82 113.416 183.477 117.548 180.72" stroke="black" stroke-width="15" stroke-linecap="round"/>
<path d="M151 44C142.918 163.058 147.062 283.575 147.062 403" stroke="black" stroke-width="15" stroke-linecap="round"/>
<path d="M221 76C195.787 107.92 189.414 148.141 179.96 185.542C173.355 211.674 174.267 238.555 170.713 265.016C165.224 305.896 164 346.318 164 388" stroke="black" stroke-width="10" stroke-linecap="round"/>
<path d="M143 183.663C134.38 179.909 107.847 177.516 100.94 184.282C98.8558 186.325 94.7371 186.764 93.1132 188.62C90.4207 191.698 87.5366 191.721 84.9701 193.733C79.9788 197.645 75.7473 199 69 199" stroke="black" stroke-width="15" stroke-linecap="round"/>
<path d="M420.565 209C445.163 219.132 457.527 223.997 472.611 242.151C481.401 252.731 493 262.77 493 276.131C493 300.355 491.802 313.988 466.977 328.344C457.084 334.065 446.846 339 434.918 339C422.82 339 420.052 338.861 410.907 333.672C387.437 320.355 423.51 324.342 425.394 317.689" stroke="black" stroke-width="10" stroke-linecap="round"/>
<path d="M413.407 323.528C409.968 324.377 402.262 327.378 402.018 321.166C401.903 318.227 402.247 314.319 405.814 313.865C410.071 313.323 417.047 312.012 421 310" stroke="black" stroke-width="10" stroke-linecap="round"/>
<path d="M413.394 310C407.173 302.567 404.933 301 414.366 301C418.577 301 422.789 301 427 301" stroke="black" stroke-width="10" stroke-linecap="round"/>
<path d="M395 220C399.099 227.533 404.811 237.479 406.579 246.13C407.97 252.938 410.703 259.127 412.111 265.711C413.157 270.604 412.346 285.723 417 288" stroke="black" stroke-width="10" stroke-linecap="round"/>
<path d="M407 250C418.847 259.341 441.542 277.654 433.2 294" stroke="black" stroke-width="10" stroke-linecap="round"/>
<path d="M169.41 267.499C165.273 271.697 162.445 273.844 157.686 276.194C156.174 276.941 151.846 279.366 151.429 280.596" stroke="black" stroke-width="10" stroke-linecap="round"/>
<path d="M179 195C169.144 196.629 161.469 199.823 155 206" stroke="black" stroke-width="10" stroke-linecap="round"/>
<path d="M141.658 215C119.819 232.519 83.574 262.689 83.2328 292.378C83.1421 300.27 82.1265 310.164 85.195 317.749C86.3251 320.542 89.2483 321.799 90.3269 324.465C92.5444 329.946 103.572 336.394 108.741 338.642C113.489 340.708 115.945 344.021 121.269 344.314C124.022 344.465 125.255 347 128.363 347C130.98 347 133.596 347 136.212 347C145.065 347 155.071 336.097 147.08 328.196" stroke="black" stroke-width="10" stroke-linecap="round"/>
<path d="M148 333C145.177 328.026 139.828 327 135 327" stroke="black" stroke-width="10" stroke-linecap="round"/>
<path d="M136 316.035C138.676 316.035 142.924 315.692 145.148 317.147C146.314 317.91 148.358 318.012 149 319" stroke="black" stroke-width="10" stroke-linecap="round"/>
<path d="M138 301.004C141.606 301.004 144.323 300.811 147.111 302.978C147.956 303.634 149.587 304.174 150 305" stroke="black" stroke-width="10" stroke-linecap="round"/>
<path d="M45 281.046C44.0894 273.302 33.084 278.56 29.8131 281.342C25.7705 284.781 18.7289 284.612 14 282.378" stroke="black" stroke-width="10" stroke-linecap="round"/>
<path d="M64 253.182C61.5208 248.877 52.509 249.212 49.0794 252.562C45.0132 256.534 39.7347 255.973 34 255.973" stroke="black" stroke-width="10" stroke-linecap="round"/>
<path d="M168.117 333C164.348 386.523 164.989 443.143 158.566 496.119C157.023 508.849 152.256 525.6 154.671 538.756C155.601 543.823 172.133 551.085 175.406 551.274C203.755 552.908 232.373 551.274 260.735 551.274C271.333 551.274 281.931 551.274 292.529 551.274C301.079 551.274 297.053 517.589 297.053 508.049C297.053 479.037 297.053 450.025 297.053 421.014" stroke="black" stroke-width="10" stroke-linecap="round"/>
<path d="M400 339C411.648 339.324 422.074 343.177 433.776 343.373C442.48 343.52 451.048 344.464 459.711 344.831C463.493 344.992 471.886 347.937 474.991 349.367C478.831 351.135 476.005 368.834 475.896 371.477C475.379 383.96 470.873 393.899 467.955 405.655C465.29 416.39 464.643 426.985 460.516 437.566C457.561 445.139 453.047 452.322 450.664 460" stroke="black" stroke-width="10" stroke-linecap="round"/>
<path d="M337 556.375C337 537.074 338.814 517.477 338.814 498.484C338.814 489.382 335.191 471.189 339.722 463.044C343.656 455.972 375.608 460.326 383.772 460.326C399.497 460.326 415.222 460.326 430.947 460.326C448.621 460.326 466.295 460.326 483.969 460.326C487.603 460.326 499.891 458.613 502.113 461.534C507.128 468.125 507.557 482.127 507.557 490.127C507.557 513.668 513 536.797 513 560" stroke="black" stroke-width="10" stroke-linecap="round"/>
<path d="M333 563C391.15 570.773 449.677 564.822 508 564.822" stroke="black" stroke-width="10" stroke-linecap="round"/>
<path d="M393.027 532.16C393.027 541.292 392.407 512.93 397.076 505.059C400.937 498.549 401.577 492.958 407.704 487.895C418.539 478.941 424 540.072 424 543" stroke="black" stroke-width="10" stroke-linecap="round"/>
<path d="M394 520C402.971 520 414.473 519.735 422 514" stroke="black" stroke-width="10" stroke-linecap="round"/>
<path d="M441 491C441 507.996 442 525.567 442 542" stroke="black" stroke-width="10" stroke-linecap="round"/>
<path d="M277 406C289.268 410.609 300.778 414.731 313.768 417.333C324.035 419.39 334.018 426.459 344.374 427.756C354.284 428.997 355.182 429.555 355.182 439.494C355.182 445.576 357 451.298 357 457" stroke="black" stroke-width="10" stroke-linecap="round"/>
<path d="M310.929 97.9755C326.802 115.694 325.493 93.8887 317.741 93.8887C311.636 93.8887 312.291 95.5701 312.291 101.457C312.291 108.525 318.634 110.612 324.552 111.598" stroke="black" stroke-width="10" stroke-linecap="round"/>
<path d="M297.306 87.0773C295.503 92.6003 289.149 109.071 295.187 114.247C299.676 118.094 304.307 120.926 309.567 123.556C315.974 126.759 324.093 125.398 330.682 123.934C333.553 123.296 334.723 119.971 337.115 119.772C340.779 119.466 339.594 115.675 341.202 113.263C347.789 103.382 344.188 86.5405 333.785 82.6877C326.79 80.097 321.132 80.2659 313.654 80.2659C306.508 80.2659 304.379 82.4492 298.669 84.3527" stroke="black" stroke-width="10" stroke-linecap="round"/>
<path d="M342.261 92.5264C346.363 92.0707 347.657 86.3822 351.797 85.7908C356.105 85.1753 357.767 81.6283 362.695 81.6283C369.337 81.6283 375.791 76.1792 383.129 76.1792" stroke="black" stroke-width="10" stroke-linecap="round"/>
<path d="M290.495 102.062C272.592 96.0947 255.003 92.4008 236.837 88.3638C233.465 87.6145 228.06 87.6844 225.106 85.715" stroke="black" stroke-width="10" stroke-linecap="round"/>
<path d="M315.815 63.5785C302.23 64.1329 285.455 62.0888 272.279 66.4808" stroke="black" stroke-width="10" stroke-linecap="round"/>
</svg>
