<svg width="818" height="424" viewBox="0 0 818 424" fill="none" xmlns="http://www.w3.org/2000/svg">
<path d="M205.101 62.7945C203.38 65.4845 196.04 78.4781 197.112 75.619C200.327 67.0457 207.564 58.2165 208.991 49.6546C209.694 45.4373 217.617 35.983 220.659 32.9407C225.256 28.3433 229.052 22.5687 234.324 21.0622C235.987 20.5872 238.515 17.4315 240.421 18.6445C243.972 20.9041 248.576 25.7971 250.303 29.682C251.922 33.3262 253.707 38.9621 256.294 41.9809C258.806 44.9111 261.334 53.0944 263.758 54.8054C267.566 57.4934 277.003 68.5139 277.003 73.2012C277.003 74.4912 285.95 90.3356 284.571 90.3356C283.263 90.3356 269.542 74.5528 267.963 72.2552C264.926 67.8383 251.224 66.5788 245.782 66.5788C238.024 66.5788 229.893 65.2243 223.602 69.9426C222.491 70.7759 214.228 71.2069 213.09 69.9426C209.888 66.3845 214.939 59.0365 216.559 56.0669C219.803 50.1196 224.172 40.1718 232.537 44.8191C239.482 48.677 256.254 66.4864 236.637 57.5385C228.068 53.6299 230.107 35.2336 241.052 39.1427C244.836 40.494 253.805 49.5495 246.728 49.5495" stroke="#F7D002" stroke-width="18" stroke-linecap="round"/>
<path d="M180.465 217.062C186.924 181.177 210.423 148.699 248.828 148.699C258.973 148.699 283.843 162.955 287.314 172.5C289.013 177.172 295.49 182.637 298.961 187.945C303.012 194.14 306.803 199.916 309.848 205.669C317.931 220.937 300.27 223.21 289.972 221.493C285.162 220.692 280.12 214.614 275.667 213.011C268.797 210.538 263.43 205.669 255.664 205.669C243.343 205.669 229.002 200.58 215.786 203.516C205.308 205.845 195.317 217.062 185.022 217.062" stroke="black" stroke-width="10" stroke-linecap="round"/>
<path d="M169.072 100.845C163.917 101.49 170.725 109.373 168.945 98.6932C168.259 94.5752 157.86 91.907 155.906 96.7942C154.509 100.286 149.824 109.96 156.539 109.96C162.765 109.96 164.042 105.639 169.072 103.124" stroke="black" stroke-width="10" stroke-linecap="round"/>
<path d="M301.24 100.845C319.939 118.445 312.087 88.7316 306.304 94.5154C295.297 105.522 330.272 101.408 308.076 94.009" stroke="black" stroke-width="10" stroke-linecap="round"/>
<path d="M208.072 173.632C208.072 188.836 214.48 188.765 224.024 177.176C232.474 166.915 238.646 179.624 245.672 178.063C258.042 175.314 250.801 165.761 265.041 174.138C268.592 176.226 268.669 183.069 274.156 182.747C276.04 182.636 282.266 173.364 283.272 171.353" stroke="black" stroke-width="10" stroke-linecap="round"/>
<path d="M196.417 212.505C196.417 204.112 200.964 199.095 206.798 193.262C213.203 186.857 218.928 193.258 226.04 194.275C235.625 195.644 244.376 194.275 254.525 194.275C263.155 194.275 259.332 210.226 268.324 210.226C274.795 210.226 277.368 203.703 283.01 203.39C289.233 203.044 288.976 210.696 294.403 212.505" stroke="black" stroke-width="10" stroke-linecap="round"/>
<path d="M5 214.784C5 200.407 19.2126 182.025 34.624 182.881C51.1031 183.796 57.6184 203.811 74.5024 188.704C84.6977 179.582 102.155 167.263 116.66 169.335C120.061 169.821 126.942 175.407 130.206 177.31C135.995 180.688 133.072 182.881 141.726 182.881" stroke="black" stroke-width="10" stroke-linecap="round"/>
<path d="M141.726 230.735C142.255 187.39 162.796 144.994 174.768 103.757C181.845 79.3806 195.715 62.0017 205.658 40.4578C209.162 32.8651 217.374 25.3283 222.496 18.8095C225.451 15.0476 229.387 14.4503 232.37 11.4668C233.91 9.92729 231.519 6.01322 234.143 5.26351C247.104 1.56038 264.692 37.9777 270.73 46.0281C295.033 78.4322 302.537 119.762 319.47 156.801C325.907 170.883 330.272 190.797 330.864 206.175C331.292 217.308 335.421 229.209 335.421 239.85" stroke="black" stroke-width="10" stroke-linecap="round"/>
<path d="M178.187 116.797C179.593 104.141 202.257 86.1959 212.368 80.843C225.576 73.8506 238.427 66.5274 253.386 74.0067C263.509 79.0681 272.865 87.5946 280.225 96.7944C286.25 104.326 295.471 113.163 298.961 123.633" stroke="black" stroke-width="10" stroke-linecap="round"/>
<path d="M233.912 175.467C230.445 165.068 219.74 177.973 224.74 184.639C226.097 186.449 221.729 181.247 220.047 179.733C218.842 178.649 214.137 179.062 212.795 179.733C207.727 182.267 205.87 186.954 202.77 190.398C200.646 192.758 197.226 199.569 195.518 200.423" stroke="black" stroke-width="18" stroke-linecap="round"/>
<path d="M226.233 179.306C234.693 180.957 238.781 179.306 246.39 179.306C249.621 179.306 257.062 177.821 258.441 181.653C261.524 190.217 253.183 179.306 253.429 179.306C261.373 179.306 263.643 186.985 271.346 186.985C277.277 186.985 277.72 186.88 278.065 192.744C278.303 196.79 281.904 199.055 281.904 192.744C281.904 176.766 295.542 198.831 298.328 200.423C300.06 201.412 309.486 209.449 302.168 207.675C294.916 205.917 289.303 198.121 282.864 196.69C275.927 195.149 262.539 197.381 258.441 190.825C253.251 182.521 236.525 178.697 227.3 181.333C224.7 182.076 207.95 190.917 207.036 192.744" stroke="black" stroke-width="18" stroke-linecap="round"/>
<path d="M197.438 204.263C197.438 199.988 196.428 194.664 202.238 194.664C208.066 194.664 199.012 199.982 197.438 202.343" stroke="#FFF9DD" stroke-width="10" stroke-linecap="round"/>
<path d="M226.233 192.744C234.316 191.734 238.999 194.664 228.153 194.664" stroke="#FFF9DD" stroke-width="10" stroke-linecap="round"/>
<path d="M258.868 200.423C264.515 192.451 266.337 194.315 269.32 201.276C270.898 204.957 260.975 198.596 260.788 198.503" stroke="#FFF9DD" stroke-width="10" stroke-linecap="round"/>
<path d="M289.583 213.861C294.977 203.673 301.303 210.021 293.423 210.021" stroke="#FFF9DD" stroke-width="10" stroke-linecap="round"/>
<path d="M14.9541 261.202C14.9541 248.991 21.4781 232.071 35.7232 232.071C46.1336 232.071 47.5468 234.561 56.0877 240.432C60.8624 243.715 65.5395 253.621 72.1366 251.222C86.0006 246.18 90.3641 231.159 100.458 222.9C110.284 214.861 123.302 234.882 131.477 236.926" stroke="#01A077" stroke-width="10" stroke-linecap="round"/>
<path d="M396.199 288.055C396.199 311.363 405.218 334.395 406.085 357.806C406.235 361.87 410.46 370.586 413.499 373.321C415.208 374.86 421.376 381.574 422.287 381.834C439.001 386.61 463.616 381.972 481.053 381.972C497.475 381.972 512.207 377.029 528.286 377.029C545.541 377.029 561.606 372.086 578.539 372.086C588.93 372.086 607.634 368.937 616.436 363.436C626.078 357.409 642.993 366.798 645.819 349.842C646.43 346.173 649.164 344.703 651.723 342.428C655.111 339.416 653.06 331.001 654.469 326.775C657.424 317.909 660.648 308.726 660.648 299.314C660.648 293.09 664.016 270.037 669.298 265.812C670.076 265.189 673.005 257.072 673.005 255.926C673.005 251.768 663.505 253.454 660.648 253.454C645.184 253.454 630.878 257.871 615.612 258.397C605.217 258.756 596.422 263.34 585.542 263.34C575.805 263.34 566.071 266.446 556.845 269.382C542.224 274.034 522.514 275.698 507.278 275.698C491.62 275.698 476.293 282.524 461.007 283.112C439.631 283.934 419.923 285.584 398.67 285.584" stroke="black" stroke-width="10" stroke-linecap="round"/>
<path d="M561.299 139.382C556.714 144.539 556.356 158.308 556.356 165.332C556.356 175.187 573.195 163.513 576.677 162.174C585.428 158.808 593.813 158.006 602.353 154.211C606.105 152.543 609.971 149.268 614.161 149.268C620.251 149.268 601.844 148.496 595.899 149.817C587.863 151.603 580.693 151.739 572.42 151.739C562.916 151.739 559.379 149.268 571.734 149.268C579.377 149.268 587.02 149.268 594.664 149.268C599.187 149.268 602.525 150.809 606.884 151.602C614.59 153.003 607.967 153.633 602.765 156.682C593.077 162.361 583.402 166.078 572.558 169.177C567.479 170.628 558.518 183.741 551.962 178.376C547.986 175.123 553.231 159.003 554.022 155.446C556.148 145.879 570.732 149.268 578.05 149.268C586.105 149.268 594.16 149.268 602.215 149.268C605.805 149.268 627.509 149.268 613.749 149.268C604.138 149.268 594.526 149.268 584.915 149.268C573.317 149.268 566.869 145.357 556.356 141.853" stroke="#F7D002" stroke-width="17" stroke-linecap="round"/>
<path d="M628.518 248.512C628.518 241.336 629.397 213.911 617.397 213.911C609.492 213.911 606.387 205.014 596.938 211.439C585.884 218.956 588.975 241.518 588.975 253.455" stroke="black" stroke-width="10" stroke-linecap="round"/>
<path d="M576.617 260.869C576.617 248.303 577.372 236.943 574.008 225.17C572.465 219.769 556.554 221.063 553.138 223.796C550.668 225.772 547.086 237.256 546.959 240.548C546.641 248.824 541.568 255.254 546.959 263.34" stroke="black" stroke-width="10" stroke-linecap="round"/>
<path d="M408.556 283.112C405.532 264.208 400.629 233.015 428.877 236.154C441.894 237.6 448.1 265.505 448.1 275.697" stroke="black" stroke-width="10" stroke-linecap="round"/>
<path d="M460.457 278.169C455.365 266.71 457.986 251.007 457.986 238.625C457.986 231.14 474.807 232.082 480.779 234.232C495.874 239.666 492.587 266.069 492.587 278.169" stroke="black" stroke-width="10" stroke-linecap="round"/>
<path d="M525.863 266.988C528.819 232.997 536.997 200.827 540.554 167.03C541.674 156.396 538.065 143.299 541.241 132.979C545.754 118.311 548.107 122.02 559.365 126.113C572.007 130.71 589.045 136.671 602.342 138.334C616.599 140.116 632.026 138.471 646.416 138.471C660.105 138.471 625.033 161.022 622.251 163.186C605.412 176.282 585.645 183.018 565.956 188.45C553.969 191.757 543.322 197.786 530.806 197.786" stroke="black" stroke-width="10" stroke-linecap="round"/>
<path d="M417.103 250.551V256.352" stroke="black" stroke-width="7" stroke-linecap="round"/>
<path d="M431.605 250.551V256.352" stroke="black" stroke-width="7" stroke-linecap="round"/>
<path d="M467.861 249.101V253.452" stroke="black" stroke-width="7" stroke-linecap="round"/>
<path d="M479.463 246.2L482.363 252.001" stroke="black" stroke-width="7" stroke-linecap="round"/>
<path d="M556.326 238.949L554.876 241.849" stroke="black" stroke-width="7" stroke-linecap="round"/>
<path d="M565.028 233.148C565.195 234.484 565.499 234.108 566.478 234.598" stroke="black" stroke-width="7" stroke-linecap="round"/>
<path d="M599.833 222.996V228.797" stroke="black" stroke-width="7" stroke-linecap="round"/>
<path d="M614.335 222.996V225.897" stroke="black" stroke-width="7" stroke-linecap="round"/>
<path d="M350.833 191.292C351.879 186.065 365.348 176.463 370.605 176.463C378.77 176.463 385.149 176.999 392.711 180.308C407.384 186.727 420.675 194.562 437.473 185.113C444.883 180.945 470.596 168.573 478.802 174.541C494.16 185.71 508.042 176.463 523.837 176.463" stroke="black" stroke-width="10" stroke-linecap="round"/>
<path d="M24.5967 300.037C51.3297 285.825 75.0278 277.794 104.783 277.794C130.57 277.794 150.046 300.589 174.808 304.431C203.605 308.9 236.575 291.266 263.507 283.286C269.56 281.493 282.671 277.627 289.046 280.815C297.745 285.164 302.918 296.425 313.76 297.566C322.349 298.47 328.981 307.12 337.926 307.452C346.78 307.78 360.639 309.977 368.133 304.98" stroke="black" stroke-width="10" stroke-linecap="round"/>
<path d="M674.916 275.171C684.16 272.907 724.844 258.621 734.781 272.699C738.208 277.555 751.119 279.63 756.475 277.093C764.83 273.135 768.369 265.86 778.718 265.285C787.491 264.797 795.121 266.138 803.433 262.813" stroke="black" stroke-width="10" stroke-linecap="round"/>
<path d="M44.3687 411.254C44.3687 397.258 83.4647 395.566 92.1507 393.954C114.764 389.757 134.292 386.937 157.096 393.954C164.598 396.262 171.358 398.408 177.966 402.879C183.497 406.62 190.649 415.425 197.601 416.197C207.076 417.25 215.308 419.356 225.611 418.531C249.215 416.643 268.701 397.735 291.517 392.032C308.326 387.829 325.999 385.572 343.418 386.539C351.018 386.962 358.146 393.465 365.113 395.876C370.714 397.815 378.413 396.425 384.335 396.425C394.18 396.425 398.38 395.531 407.128 392.032C410.482 390.69 421.387 387.384 423.604 385.166C431.41 377.361 443.333 376.653 454.086 376.653C463.968 376.653 488.916 372.25 496.651 379.125C506.118 387.54 521.401 385.145 532.624 390.247C542.224 394.61 560.292 391.925 569.422 387.775C575.113 385.188 583.544 385.648 587.958 380.498C588.462 379.911 599.95 374.211 600.453 374.182C612.466 373.475 621.645 360.965 633.131 357.431C642.568 354.527 656.073 356.882 665.947 356.882C671.302 356.882 676.657 356.882 682.012 356.882C691.365 356.882 696.362 364.238 704.255 366.493C707.067 367.296 710.083 366.278 712.906 366.905C715.767 367.541 715.677 370.913 717.986 371.573C721.572 372.598 728.814 376.526 731.991 376.653C744.944 377.172 758.018 376.653 770.985 376.653" stroke="black" stroke-width="10" stroke-linecap="round"/>
<path d="M46.8394 364.296C72.0841 332.931 106.789 326.203 141.992 345.76C152.548 351.624 161.421 356.689 172.885 361.275C186.928 366.892 211.025 361.824 226.159 361.824C231.509 361.824 239.129 358.042 243.734 355.234C253.69 349.163 259.821 344.66 271.47 340.954C286.696 336.109 302.646 336.217 318.703 337.109C329.032 337.683 338.962 346.995 349.596 346.995C363.105 346.995 378.464 349.467 392.847 349.467" stroke="#01A077" stroke-width="10" stroke-linecap="round"/>
<path d="M669.654 327.224C685.995 324.137 703.544 317.338 720.319 317.338C726.516 317.338 732.699 324.387 738.855 327.773C751.565 334.763 753.98 337.11 769.2 337.11C783.563 337.11 808.861 333.895 813 317.338" stroke="#01A077" stroke-width="10" stroke-linecap="round"/>
<path d="M657.296 211.064C659.189 203.492 688.572 200.062 695.467 201.315C709.255 203.822 721.617 210.517 735.835 211.064C745.42 211.433 759.356 212.007 766.042 203.65C774.178 193.48 793.916 193.764 805.586 193.764" stroke="#01A077" stroke-width="10" stroke-linecap="round"/>
</svg>
