<svg width="158" height="202" viewBox="0 0 158 202" fill="none" xmlns="http://www.w3.org/2000/svg">
<path d="M6 19C6 78.4049 5 137.633 5 197" stroke="black" stroke-width="10" stroke-linecap="round"/>
<path d="M17 8.99437C54.569 2.40819 91.4866 5.95226 128.829 5.95226C133.077 5.95226 141.366 3.91883 142.712 9.07887C145.726 20.6386 146.121 32.6582 146.654 44.4857C147.431 61.7308 152.413 78.4131 152.738 95.6945C153.328 127.107 152.738 158.579 152.738 190" stroke="black" stroke-width="10" stroke-linecap="round"/>
<path d="M14 194C38.601 194 62.9161 192.667 87.4734 192.667C100.412 192.667 113.555 191.803 126 190" stroke="black" stroke-width="10" stroke-linecap="round"/>
<path d="M22 64.3119C25.3153 60.7383 28.8448 53.6882 34.32 58.4097C36.3745 60.1813 40.1222 65.1374 42.79 65.7054C49.9265 67.2249 46.6477 54.7442 55.3667 59.8852C60.299 62.7935 62.5706 60.3778 65.9756 56.9341C70.544 52.3136 72.9438 56.8509 76.67 61.3608C80.0523 65.4544 80.6504 71.2146 85.91 65.7874C89.6058 61.9739 95.3895 58.2237 99 62.8363" stroke="black" stroke-width="10" stroke-linecap="round"/>
<path d="M23.0019 107C23.0019 100.578 22.6745 92.2124 30.6086 95.0753C34.4685 96.468 37.6 103.579 42.1467 101.079C44.3405 99.8725 49.0739 89.7549 52.4029 91.1278C58.197 93.5171 57.5481 107.57 64.4539 105.355C67.5083 104.376 67.6948 99.5984 72.2315 99.5984C78.0824 99.5984 77.4171 105.52 81.8039 105.52C87.7299 105.52 88.1805 95.4563 93.7694 95.1575C98.5436 94.9023 102.017 101.735 103 105.52" stroke="black" stroke-width="10" stroke-linecap="round"/>
<path d="M18 142C18.7513 138.368 25.7675 128.719 30.073 131.494C34.087 134.082 34.8213 138.636 40.5075 137.414C45.3695 136.37 45.6019 127.328 50.597 133.329C52.1999 135.254 53.9205 139.851 56.806 140.249C59.1635 140.575 59.6457 138.047 61.6352 137.498C70.0382 135.176 78.1235 139.805 86.126 136.164C91.0749 133.912 97.1062 129.38 102.769 132.328C108.643 135.386 115.517 136.453 122 137.498" stroke="black" stroke-width="10" stroke-linecap="round"/>
<path d="M23 174.431C30.3286 173.996 40.24 164.195 47.2735 170.115C52.851 174.809 58.7304 176.9 66.0769 175.639C76.6064 173.834 97.71 172.686 103 162" stroke="black" stroke-width="10" stroke-linecap="round"/>
<path d="M23 30C33.9812 24.4692 52.103 28.2792 64 28.2792" stroke="black" stroke-width="10" stroke-linecap="round"/>
<path d="M76 25.3107C79.1272 31.4476 78.9993 25.6615 78.9993 22" stroke="black" stroke-width="10" stroke-linecap="round"/>
<path d="M93 28H118" stroke="black" stroke-width="10" stroke-linecap="round"/>
<path d="M133 22.5897C133.42 19.7675 136 28.1366 136 25.4667" stroke="black" stroke-width="10" stroke-linecap="round"/>
<path d="M112 60.082C113.89 61.9494 116.778 69.3456 119.125 66.2538C120.914 63.8964 121.341 61.452 123.083 59.2997C126.776 54.738 128.671 51.7528 131 46" stroke="#01A077" stroke-width="10" stroke-linecap="round"/>
<path d="M110 94.6647C116.954 99.661 122.258 104.546 125.674 92.418C127.402 86.284 131.675 81.3753 133 76" stroke="#01A077" stroke-width="10" stroke-linecap="round"/>
<path d="M110 127.238C110 134.939 118.263 143.996 122.75 135.705C125.946 129.8 131.079 123.996 134 118" stroke="#01A077" stroke-width="10" stroke-linecap="round"/>
<path d="M106 163.783C108.893 167.256 111.849 171.801 114.988 174.909C115.956 175.868 122.358 168.979 123.716 167.634C125.405 165.961 125.505 163.456 126.395 161.473C127.965 157.975 132.656 156.994 134 153" stroke="#01A077" stroke-width="10" stroke-linecap="round"/>
</svg>
