<svg width="201" height="234" viewBox="0 0 201 234" fill="none" xmlns="http://www.w3.org/2000/svg">
<path d="M75.7217 19.4014C74.1122 21.8614 70.0147 29.5177 72.0944 27.4394C74.0155 25.5195 74.3023 22.6405 74.3023 20.1106C74.3023 17.0476 69.3884 25.1605 70.123 28.4638C71.5621 34.9359 93.4838 13.7275 75.0909 13.7275C69.8648 13.7275 69.6046 20.7302 67.915 24.4448C65.4585 29.8455 70.0441 32.8403 70.0441 26.4149C70.0441 22.0865 69.5938 16.9221 63.6568 19.559C58.7642 21.732 58.6888 28.505 58.6888 32.8768C58.6888 42.4694 60.0602 29.3855 55.85 27.2818C50.5791 24.6481 52.2311 33.5264 54.5883 35.7138C57.5621 38.4733 66.0786 42.1009 69.3344 37.7627C72.2819 33.8353 77.8736 27.6083 71.5424 24.4448C69.1378 23.2433 68.5143 31.4017 69.3344 32.8768C70.5332 35.0332 80.5574 36.8857 81.3205 34.2165C83.5577 26.3916 78.6577 33.9178 82.1879 34.9257C87.2529 36.3719 89.0361 32.0285 91.2564 28.7002C91.939 27.677 90.1687 30.9501 89.9947 32.1676C89.4572 35.9279 91.2434 33.2671 91.3352 31.0644C91.3856 29.8568 91.0995 39.6155 93.0701 41.7817C98.5794 47.8379 102.176 32.394 101.271 31.0644C96.9708 24.7445 63.9519 25.5706 59.0043 31.0644C57.2795 32.9795 57.2718 38.5989 58.3734 40.6784C60.124 43.9828 59.5049 38.0266 57.5848 36.1078C54.0205 32.5458 53.0112 42.5395 53.0112 44.9338C53.0112 49.5236 52.7291 38.978 50.1724 36.423C42.7511 29.0067 39.3874 49.5676 44.1793 54.5479C48.3312 58.863 51.7239 54.3387 55.0615 51.7109C59.6238 48.1187 59.3616 38.586 54.746 46.0371C50.3629 53.1129 47.0321 60.2984 47.3336 68.7325C47.355 69.333 48.6166 72.1228 49.4627 70.939C51.059 68.7056 50.1724 64.2535 50.1724 61.6402C50.1724 53.4539 39.3462 73.3746 38.1863 75.9037C37.2638 77.915 34.5971 90.3856 38.896 83.9416C40.6909 81.251 43.5743 64.4299 40.8674 74.0912C40.053 76.9978 38.4446 92.0538 42.5233 82.996C45.0883 77.2999 47.9784 60.6115 45.1256 75.2732C43.8619 81.7679 42.495 89.0137 43.0753 95.6834C43.2245 97.3972 47.131 90.4339 47.2547 88.8275C47.3736 87.2829 47.9752 70.9025 42.2868 75.0368C35.1869 80.1969 34.6062 96.0933 33.2183 103.721C32.7252 106.432 33.1395 106.929 33.1395 103.406C33.1395 99.2927 32.7992 94.5553 29.6698 91.428C27.897 89.6564 25.3998 106.549 28.1715 108.765C35.0299 114.248 36.2073 99.1149 36.688 95.3682C37.6792 87.6416 36.6868 81.0251 29.5909 76.2977C25.7756 73.7558 24.623 100.844 24.623 104.431C24.623 112.92 30.2702 104.396 31.0103 100.254C31.6441 96.7076 30.9481 80.4056 30.3795 84.0993C28.819 94.2359 28.8812 104.815 28.8812 115.069C28.8812 122.445 33.0797 111.75 33.1395 108.765C33.2659 102.446 33.1395 108.654 33.1395 111.05C33.1395 114.755 30.9916 124.931 33.4549 122.161C36.098 119.19 33.5224 100.718 31.4046 113.651C30.3547 120.062 28.8812 126.094 28.8812 132.642C28.8812 138.872 29.6027 132.815 29.9852 129.884C30.3206 127.315 31.7201 109.88 31.7201 114.754C31.7201 118.496 32.5268 123.047 30.6161 126.102C27.4241 131.205 25.9244 140.213 24.7019 146.118C24.5942 146.638 22.5228 154.167 20.6802 150.688C19.0778 147.664 17.526 137.494 17.526 140.917C17.526 143.411 16.9142 146.697 17.6048 149.112C17.7062 149.467 16.1208 144.559 14.6871 142.808C10.0374 137.129 10.9914 145.837 12.1637 146.748C17.9643 151.257 17.948 98.7949 13.5832 132.721C12.9699 137.487 11.8832 145.593 14.8449 149.822C16.6957 152.464 20.3535 156.079 23.2036 152.58C27.5106 147.292 31.136 139.244 33.6915 132.958C35.0497 129.616 37.1858 119.192 37.3977 122.792C37.5863 125.996 37.6675 139.14 37.3977 128.623C37.2746 123.825 37.8401 115.369 33.1395 113.02" stroke="#F7D002" stroke-width="10" stroke-linecap="round"/>
<path d="M101.462 42.0703C106.94 45.0901 111.57 50.2099 116.478 54.0474C128.615 63.5372 140.084 73.5717 153.431 81.3609C164.507 87.825 173.66 97.9301 184.2 104.585C188.228 107.127 190.214 112.316 194.874 114.371C201.066 117.101 179.832 125.243 177.06 126.275C156.356 133.978 134.8 137.442 112.945 141.684C104.976 143.231 97.6441 145.473 89.5366 145.92C85.9961 146.115 80.6647 147.035 77.6116 148.549" stroke="black" stroke-width="10" stroke-linecap="round"/>
<path d="M57.0911 17.1764C57.6737 12.4967 73.783 8.26331 78.0979 6.33787C85.8992 2.85668 91.2272 6.36183 91.2272 14.6132C91.2272 18.681 89.7296 20.8225 87.2154 23.7674C85.565 25.7007 78.4485 28.2521 85.4649 26.8432C92.2388 25.483 97.0056 21.131 104.283 21.131C108.025 21.131 113.296 18.4966 116.902 20.1058C124.599 23.5405 112.361 30.8354 112.234 32.9948C111.966 37.5628 125.359 38.8939 114.203 44.1995C100.003 50.9532 80.685 47.495 64.9686 47.495" stroke="black" stroke-width="10" stroke-linecap="round"/>
<path d="M94.902 62.8616C85.2814 65.7877 83.2721 73.0767 85.5929 83.4002C87.6088 92.3674 96.6626 93.3382 104.285 93.3382C118.861 93.3382 123.125 60.2114 105.626 60.2114" stroke="black" stroke-width="10" stroke-linecap="round"/>
<path d="M103.396 73.037C99.3693 77.7999 108.885 75.6528 108.373 74.4221C107.34 71.9405 102.9 72.6942 102.079 74.4221" stroke="black" stroke-width="10" stroke-linecap="round"/>
<path d="M118.653 72.6923C119.679 81.3276 136.126 64.9278 137.595 64.155" stroke="black" stroke-width="10" stroke-linecap="round"/>
<path d="M116.285 115.422C116.285 121.839 121.671 122.335 126.151 124.667C132.667 128.059 136.924 122.159 139.963 117.888" stroke="black" stroke-width="10" stroke-linecap="round"/>
<path d="M57.0909 55.4788C57.0909 64.8944 53.3028 71.9726 50.51 80.8369C46.1739 94.5995 42.8099 107.333 40.7118 121.586C39.0315 133.001 38.2947 146.064 34.4234 157.058C32.8063 161.65 30.7674 166.553 30.7674 171.496C30.7674 174.378 30.7674 177.261 30.7674 180.144C30.7674 182.79 28.501 184.318 28.2081 186.813C27.5343 192.554 28.135 198.76 28.135 204.549" stroke="black" stroke-width="10" stroke-linecap="round"/>
<path d="M149.434 136.718C153.384 136.969 151.607 140.254 152.617 143.336C154.935 150.403 156.85 158.416 159.852 165.173C163.631 173.676 166.62 182.825 168.679 191.716C169.606 195.721 172.875 198.559 172.875 202.23C172.875 206.499 173.722 211.231 175.479 214.803" stroke="black" stroke-width="10" stroke-linecap="round"/>
<path d="M57.0909 16.8311C36.0764 16.8311 39.8651 40.1986 39.8651 55.8237C39.8651 64.8784 32.1115 68.0339 27.2034 74.3287C21.263 81.9474 16.014 87.338 16.014 97.4599C16.014 106.712 16.014 115.965 16.014 125.217C16.014 133.345 5.41345 136.779 5.41345 145.778C5.41345 148.95 4.10238 156.297 6.14959 158.923C7.17552 160.239 12.3968 164.871 14.0264 164.871C18.0608 164.871 23.6306 168.17 26.6145 162.962C27.4887 161.436 28.5824 161.64 29.5591 159.584C31.1352 156.265 33.6551 153.961 34.5649 150.331" stroke="black" stroke-width="10" stroke-linecap="round"/>
<path d="M50.7771 215.93C50.7771 209.244 51.7532 202.822 52.0761 196.324C52.3525 190.761 50.9642 183.254 57.5607 183.254C63.8024 183.254 69.2351 187.786 75.4578 188.482C77.5531 188.716 78.8119 190.702 80.7259 191.023C83.5691 191.5 86.3172 190.674 89.0971 191.749C93.2937 193.373 98.9799 192.403 103.458 192.403C111.751 192.403 113.128 195.065 113.128 202.859C113.128 208.33 113.128 213.8 113.128 219.27C113.128 223.925 111.062 225.316 109.231 229" stroke="black" stroke-width="10" stroke-linecap="round"/>
<path d="M64.6423 187.061C64.6423 183.008 62.3498 174.374 68.1368 175.46C75.3366 176.811 81.6351 179.21 88.8123 180.526C97.3158 182.085 105.747 184.418 114.73 184.418C120.934 184.418 120.991 184.717 120.991 191.026C120.991 194.795 120.991 198.564 120.991 202.333C120.991 206.714 120.991 211.095 120.991 215.476C120.991 217.011 121.338 226.089 119.68 222.745" stroke="black" stroke-width="10" stroke-linecap="round"/>
<path d="M130.492 58.1913C131.225 51.6113 135.125 51.2389 140.702 51.6505C144.481 51.9295 145.298 56.5212 147.265 58.482C150.795 61.9996 150.182 70.3078 150.182 75.1971" stroke="black" stroke-width="10" stroke-linecap="round"/>
<path d="M62.9475 195.292C60.7676 202.099 60.1086 208.483 60.1086 215.623C60.1086 218.766 65.9484 220.723 68.6251 221.927C74.4994 224.569 82.4495 223.661 88.8123 223.661C106.131 223.661 95.5445 209.45 103.006 199.862C103.106 199.734 93.6844 199.547 91.3357 199.547C88.1288 199.547 84.922 199.547 81.7152 199.547C77.3693 199.547 66.8072 197.423 65.4709 201.281C62.2736 210.511 81.9434 206.639 88.4968 206.639C92.2427 206.639 95.6126 208.829 99.1424 210.185C102.34 211.415 111.641 212.313 103.401 212.313C94.4233 212.313 74.8768 201.653 67.8365 208.688C64.4928 212.03 63.4485 212.362 70.0445 213.416C73.5294 213.974 77.1668 213.732 80.6901 213.732C86.6055 213.732 94.6682 212.621 99.8521 215.859C105.706 219.516 100.66 214.466 98.7481 212.628C95.9057 209.897 91.5463 210.895 87.866 210.895C83.8945 210.895 79.5614 210.146 76.0376 212.313C75.2986 212.768 70.1002 215.578 72.3313 216.569C79.8858 219.924 95.8001 227.607 101.272 219.405" stroke="#01A077" stroke-width="10" stroke-linecap="round"/>
<path d="M109.788 199.547C109.39 206.3 104.847 213.11 104.031 220.036C103.374 225.615 89.8455 220.873 87.3926 219.09C84.4638 216.962 76.8151 217.584 75.8007 213.022C75.0312 209.562 90.2001 210.895 92.7548 210.895" stroke="#01A077" stroke-width="10" stroke-linecap="round"/>
</svg>
