<svg width="218" height="215" viewBox="0 0 218 215" fill="none" xmlns="http://www.w3.org/2000/svg">
<path d="M12.3918 200.676C12.3918 187.15 8.90067 182.789 22.7609 182.789C28.7672 182.789 34.3238 181 40.6713 181C46.6065 181 52.5416 181 58.4768 181C67.2746 181 65.1801 184.841 65.1801 192.527C65.1801 195.515 69.845 202.464 64.2375 202.464C58.5467 202.464 52.8559 202.464 47.1651 202.464C42.571 202.464 14.2771 204.78 14.2771 199.781C14.2771 194.067 13.2331 191.732 19.933 191.732C25.5889 191.732 31.2448 191.732 36.9007 191.732C43.6088 191.732 49.271 190.285 55.7536 189.943C57.2934 189.862 59.5242 187.885 59.5242 186.366C59.5242 183.405 53.6036 184.577 51.5641 184.577C45.406 184.577 38.5723 186.964 33.1301 189.546C31.3414 190.395 17.7636 194.798 27.4742 195.31C38.7045 195.901 50.1595 195.31 61.4095 195.31" stroke="black" stroke-width="10" stroke-linecap="round"/>
<path d="M84.4522 205.231C84.4522 189.176 84.4522 173.12 84.4522 157.065C84.4522 151.362 81.8659 143.563 89.0635 143.563C98.5936 143.563 108.124 143.563 117.654 143.563C120.421 143.563 129.308 142.114 131.385 143.865C134.27 146.296 132.41 158.575 132.41 162.607C132.41 175.001 132.41 187.395 132.41 199.79C132.41 211.061 105.883 207.045 96.4417 207.045C92.1299 207.045 86.2967 208.841 86.2967 203.417C86.2967 194.819 86.2967 186.22 86.2967 177.621C86.2967 170.803 86.2967 163.984 86.2967 157.166C86.2967 149.555 91.1391 146.044 94.8021 154.848C100.438 168.395 96.2048 180.922 99.6184 194.348C101.064 200.034 101.053 187.481 101.053 185.884C101.053 178.763 101.053 171.643 101.053 164.522C101.053 158.742 100.262 152.397 101.155 146.686C102.322 139.232 104.445 161.425 105.767 168.855C107.031 175.96 110.276 201.344 110.276 180.443C110.276 173.186 110.276 151.163 110.276 170.366C110.276 182.122 110.276 217.39 110.276 205.634C110.276 191.606 112.576 177.633 113.862 163.716C114.224 159.807 113.965 138.621 113.965 152.531C113.965 161.057 115.416 169.513 115.809 178.024C115.963 181.351 119.324 191.415 119.498 182.66C119.657 174.678 119.057 166.632 119.908 158.677C120.056 157.301 121.343 141.085 121.343 148.198C121.343 162.619 123.187 176.91 123.187 191.325C123.187 197.882 123.111 178.159 124.11 171.676C124.45 169.467 124.227 152.467 125.954 152.128C127.213 151.88 126.876 168.587 126.876 169.762C126.876 177.118 128.883 187.622 126.467 194.751C124.584 200.306 113.222 197.976 108.431 197.976C93.5218 197.976 93.6749 179.329 93.6749 168.149C93.6749 166.822 93.6749 182.748 93.6749 187.093C93.6749 193.52 95.4467 195.948 97.3639 201.603" stroke="#01A077" stroke-width="10" stroke-linecap="round"/>
<path d="M156 207.525C163.542 205.034 159.666 171.569 159.666 164.859C159.666 147.208 159.666 129.557 159.666 111.906C159.666 99.6605 163.5 102.223 175.144 102.223C182.204 102.223 189.264 102.223 196.324 102.223C206.302 102.223 207.321 102.342 207.321 113.318C207.321 124.442 209.277 137.71 206.405 148.519C202.293 163.996 203.655 180.624 203.655 196.631C203.655 207.79 201.168 207.112 189.705 208.432C188.584 208.561 160.814 211.959 159.768 208.331C157.044 198.89 158.746 182.322 161.091 173.029C163.595 163.111 160.229 150.284 163.739 141.156C165.891 135.559 165.165 129.179 165.165 123.102C165.165 113.885 165.515 130.828 165.572 131.675C166.537 146.018 167.49 160.663 168.932 174.946C169.326 178.85 170.663 182.392 170.663 186.343C170.663 196.769 170.508 165.457 171.478 155.076C172.997 138.807 174.019 122.529 176.06 106.358C177.682 93.5045 176.973 132.251 177.588 145.191C178.252 159.181 177.318 173.548 180.235 187.352C182.368 197.448 181.959 167.999 181.966 167.885C182.9 152.937 186.119 138.275 187.77 123.404C189.783 105.281 188.992 112.848 188.992 124.817C188.992 148.889 188.992 172.962 188.992 197.035C188.992 206.881 188.992 193.724 188.992 191.084C188.992 177.773 188.466 164.327 189.4 151.041C189.825 144.977 192.658 138.299 192.658 132.482C192.658 121.505 194.491 154.386 194.491 165.364C194.491 171.55 194.491 177.736 194.491 183.923C194.491 187.688 194.491 176.391 194.491 172.626C194.491 153.144 193.242 133.409 196.222 114.226C196.609 111.734 197.714 95.4396 203.248 105.854C207.042 112.994 209.154 128.26 209.154 136.315C209.154 149.723 210.987 163.789 210.987 177.568C210.987 182.712 210.987 187.856 210.987 193C210.987 200.484 211.641 202.078 203.655 202.078C195.638 202.078 187.988 202.442 180.642 200.363C170.786 197.574 171.614 187.929 170.765 178.678C170.17 172.189 166.713 126.874 172.496 124.01" stroke="#F7D002" stroke-width="10" stroke-linecap="round"/>
<path d="M199.633 118.104C199.633 131.763 199.633 172.74 199.633 159.081C199.633 149.421 199.633 139.762 199.633 130.102C199.633 114.743 199.459 114.162 187.022 108.546C182.228 106.381 176.953 107.122 171.71 107.122C158.503 107.122 163.603 121.565 163.603 132.746C163.603 153.697 160 173.393 160 194.161C160 202.748 160.732 202.295 169.007 202.295C174.412 202.295 179.816 202.295 185.221 202.295C193.645 202.295 214.281 206.951 207.739 192.33C205.895 188.207 202.819 183.385 200.033 179.925C196.608 175.672 199.775 185.001 196.43 188.06C192.658 191.509 182.989 189.483 178.015 189.483C177.291 189.483 180.659 194.856 181.618 196.804" stroke="#F7D002" stroke-width="10" stroke-linecap="round"/>
<path d="M82 63.0691C60.6541 63.0691 38.9667 62.4583 18.2201 64.8688C7.05792 66.1657 0.90102 81.8277 8.09635 90.964C13.5184 97.8488 12.2057 96.9581 20.4474 99.4625C27.6427 101.649 35.3115 100.862 42.8209 100.862C55.2732 100.862 67.7255 100.862 80.1777 100.862" stroke="black" stroke-width="10" stroke-linecap="round"/>
<path d="M81 103C81 116.018 88.7778 113.519 97 119" stroke="black" stroke-width="10" stroke-linecap="round"/>
<path d="M99 99C92.956 100.148 97.6965 114.029 99 117" stroke="black" stroke-width="10" stroke-linecap="round"/>
<path d="M90 63C105.2 63 120.853 63.3922 120.853 80.8947C120.853 84.0559 122.12 91.3476 117.223 91.6316C112.33 91.9154 110.285 97 104.519 97" stroke="black" stroke-width="10" stroke-linecap="round"/>
<path d="M180 12.4162C185.473 12.4162 198.302 2.56994 202.917 5.56803C209.305 9.71833 213 32.8426 213 41" stroke="black" stroke-width="10" stroke-linecap="round"/>
<path d="M28 159C36.6203 147.316 41.246 134.753 47.0313 122.068C50.1917 115.138 53.6983 109.581 57 103" stroke="black" stroke-width="10" stroke-linecap="round"/>
<path d="M85 56C91.7348 55.1416 93.1959 38.5264 98.7436 35.2941C101.253 33.8323 108.202 25.6263 109 24" stroke="black" stroke-width="10" stroke-linecap="round"/>
<path d="M105 27C122.761 28.3129 132.741 49.1383 145.972 58.28C152.244 62.613 157.196 69.6051 164 73" stroke="black" stroke-width="10" stroke-linecap="round"/>
<path d="M204 5C199.344 21.1491 188.907 33.7551 180.875 48.0833C176.437 56.0001 169.344 61.7074 167 71" stroke="black" stroke-width="10" stroke-linecap="round"/>
</svg>
