<svg width="165" height="148" viewBox="0 0 165 148" fill="none" xmlns="http://www.w3.org/2000/svg">
<path d="M82.028 69.8127C79.0783 69.8127 77.076 69.6047 75.1223 72.0469C73.3791 74.2258 76.3063 80.0039 76.4425 79.6634C79.8335 71.1859 62.4258 80.7805 77.5596 80.7805C86.4536 80.7805 85.7461 70.2223 78.372 69.8127C72.8615 69.5065 74.5983 68.0789 70.1461 71.6406C67.029 74.1344 71.4933 80.6109 74.7161 80.7805C78.7696 80.9939 96.1938 70.3346 88.3243 68.0862C80.5456 65.8637 72.8881 66.0725 72.8881 76.2106C72.8881 82.7661 75.1607 86.2645 82.028 86.2645C90.6962 86.2645 89.3399 80.6293 89.3399 73.4686" stroke="#F7D002" stroke-width="10" stroke-linecap="round"/>
<path d="M30.5917 26.9679C12.7047 45.1632 5 58.0669 5 83.7368C5 93.9763 12.1622 107.363 18.2021 115.726C35.5118 139.694 58.0493 142.131 86.4466 142.131C124.752 142.131 153.066 117.225 153.066 78.2529C153.066 61.263 148.278 47.6471 139.255 33.4674C136.076 28.4723 127.851 25.0035 122.397 22.9057C114.833 19.9963 110.81 16 101.883 16C89.3917 16 76.9005 16 64.4093 16C51.2997 16 41.4859 27.0416 32.4197 36.1078" stroke="black" stroke-width="10" stroke-linecap="round"/>
<path d="M50.7284 46.1304C39.7352 57.9596 35 66.3485 35 83.037C35 89.6939 39.4018 98.3972 43.1139 103.834C53.7522 119.416 67.6035 121 85.0562 121C108.598 121 126 104.809 126 79.4718C126 68.4264 123.057 59.5744 117.512 50.3559C115.558 47.1085 110.503 44.8533 107.151 43.4895C102.502 41.5981 100.029 39 94.5432 39C86.8663 39 79.1893 39 71.5123 39C63.4553 39 57.4238 46.1784 51.8519 52.0725" stroke="black" stroke-width="10" stroke-linecap="round"/>
<path d="M69.0494 66.6957C64.8212 71.1677 63 74.3391 63 80.6481C63 83.1648 64.693 86.455 66.1207 88.5105C70.2124 94.4011 75.5398 95 82.2524 95C91.3071 95 98 88.8789 98 79.3003C98 75.1246 96.8682 71.7781 94.7353 68.2931C93.9839 67.0654 92.0396 66.2128 90.7503 65.6973C88.9623 64.9822 88.0113 64 85.9012 64C82.9486 64 79.9959 64 77.0432 64C73.9444 64 71.6245 66.7138 69.4815 68.942" stroke="black" stroke-width="10" stroke-linecap="round"/>
<path d="M151.313 19.1221C145.308 19.7893 133.447 28.479 129.037 32.6684C126.484 35.0936 124.036 36.6543 121.21 38.689C117.255 41.5366 107.683 50.6352 107.965 55.6972C108.257 60.9625 124.886 45.4349 126.929 43.5055C133.178 37.604 140.053 33.4015 147.249 28.6045" stroke="#FEFDFB" stroke-width="10" stroke-linecap="round"/>
<path d="M144 5C142.927 11.3085 140 17.6809 140 24" stroke="#01A077" stroke-width="10" stroke-linecap="round"/>
<path d="M130.419 17C129.027 23.3404 127.044 29.8343 125 35.9649" stroke="#01A077" stroke-width="10" stroke-linecap="round"/>
<path d="M142 27.5522C146.92 25.237 163.693 26.1975 158.256 26.1975" stroke="#01A077" stroke-width="10" stroke-linecap="round"/>
<path d="M128 40.3546C134.761 40.3546 141.442 39 148.319 39" stroke="#01A077" stroke-width="10" stroke-linecap="round"/>
<path d="M154 15L85 77.5" stroke="black" stroke-width="10" stroke-linecap="round"/>
</svg>
