<svg width="239" height="217" viewBox="0 0 239 217" fill="none" xmlns="http://www.w3.org/2000/svg">
<path d="M218.217 50.2184C221.393 50.1273 225.241 50.5541 228.326 49.835C236.356 47.9636 232.069 58.8701 230.475 64.157C228.503 70.6964 224.391 76.0324 222.935 82.8664C221.66 88.8518 219.97 95.391 217.839 101.225C213.799 112.289 211.697 123.786 206.935 134.508C204.842 139.221 203.12 143.992 202.544 148.924C202.054 153.116 197.327 155.953 197.422 159.252C197.634 166.674 193.867 172.485 191.03 178.769C188.161 185.122 192.193 192.185 181.813 192.483C167.195 192.902 151.22 191.679 137.638 192.068" stroke="#01A077" stroke-width="10" stroke-linecap="round"/>
<path d="M26.9242 9.32506C24.591 11.1893 22.0722 13.581 22.0722 16.4075C22.0722 16.7015 31.4412 12.7824 32.5226 12.3071C37.9055 9.94167 17.6939 31.6964 28.6037 23.4154C32.4352 20.5071 35.7101 18.2039 30.6565 23.7882C24.4975 30.5938 14.231 36.4674 9.56895 43.9172C6.36396 49.0387 17.5344 34.3561 22.2588 30.0505C29.6256 23.3368 38.7351 18.7021 48.0117 13.9473C66.2108 4.61917 40.4622 35.0714 38.1211 38.2513C35.0795 42.3826 32.3798 51.4809 27.8573 54.5782C22.8727 57.9919 34.4111 45.4295 38.5876 41.3824C41.5391 38.5225 69.2763 7.86641 71.5253 9.47416C74.7057 11.7478 51.3639 32.0508 49.4113 34.1509C48.9906 34.6034 38.2248 46.1604 39.4274 43.4699C44.2906 32.5901 50.3679 25.2539 59.9551 16.0347C79.2408 -2.51072 48.7582 33.6349 48.7582 26.0247C48.7582 24.9982 49.7361 16.91 50.3444 17.153C51.3105 17.539 49.5802 21.0962 49.318 21.477C45.7226 26.7001 39.2982 31.4351 34.6687 36.0147C12.9 57.5489 26.4595 37.1701 37.8412 29.4541C45.1759 24.4817 46.1438 23.7121 41.2936 31.2434C36.9323 38.0154 31.6741 47.8754 24.8714 53.3108C21.4842 56.0171 30.2552 46.9218 33.6423 44.2154C41.0132 38.3262 35.8782 46.856 33.829 49.7323C33.1322 50.7102 22.2954 62.8308 23.6584 63.3753C24.1092 63.5554 49.4756 39.3097 51.6507 37.2821C68.6931 21.396 52.1678 40.4342 48.9448 46.2283C48.1188 47.7132 62.4488 29.9989 67.4197 28.2613C73.005 26.3089 61.8696 36.9485 58.6488 41.0842C56.6824 43.6093 49.0218 49.3185 48.7582 52.2671C48.4803 55.3759 53.5853 47.3695 55.9429 44.8864C60.9299 39.634 66.1332 29.3344 73.858 26.2484C74.9318 25.8194 73.3128 28.128 72.8316 29.0068C69.5609 34.9799 65.6681 40.8583 61.8213 46.6011C61.21 47.5136 51.4475 61.5254 52.3039 57.933C54.2547 49.7499 60.5048 40.9968 65.5536 33.7781C66.8061 31.9873 75.4308 20.7728 71.5253 28.8577C67.0788 38.0623 59.0051 48.7842 52.3039 57.1129C46.9793 63.7307 53.9584 52.031 54.9165 50.776C62.071 41.4049 67.2015 30.8213 77.0304 22.9681C79.0382 21.3639 83.9628 16.8316 81.3226 22.2226C78.3674 28.2566 73.4226 33.4369 70.5922 39.5932C69.0904 42.8596 76.6479 31.6868 78.3367 29.8269C83.2529 24.4126 94.3869 6.43532 103.063 5.00104C104.064 4.83566 92.7934 24.4837 92.2396 25.4283C91.2299 27.1504 86.4202 34.8697 86.5478 34.7473C87.0734 34.2434 91.8891 28.9523 91.3065 30.3487C88.4615 37.1681 80.7939 44.4091 76.7505 50.9997C69.7687 62.3796 77.9655 44.8761 81.9757 42.8735C87.6693 40.0303 76.3362 52.6201 73.9513 57.6348C71.6176 62.5415 79.7539 49.4206 80.7627 48.1667C84.8261 43.1164 94.0209 36.717 95.7853 30.7961C96.0027 30.0664 91.4088 43.4896 89.627 46.7502C86.4796 52.5097 82.7931 58.0607 79.4564 63.7481C77.993 66.2426 75.6308 74.1819 75.6308 71.4269C75.6308 63.8685 88.595 52.8594 93.5459 46.6011C97.8961 41.1021 102.395 31.6436 109.035 27.6649C113.435 25.0279 105.524 36.0057 103.343 40.0405C102.842 40.9678 97.7161 49.7983 100.824 43.9172C105.067 35.8869 110.036 28.1535 114.913 20.3588C123.466 6.69243 115.94 25.146 115.94 29.4541" stroke="#F7D002" stroke-width="10" stroke-linecap="round"/>
<path d="M8 5C8 27.1182 5 49.1072 5 71" stroke="black" stroke-width="10" stroke-linecap="round"/>
<path d="M20 5.21943C49.589 5.21943 79.1779 5.21943 108.767 5.21943C110.327 5.21943 116.527 4.32346 117.048 6.15246C119.134 13.4737 117.141 24.5725 117.141 32.1839C117.141 42.7892 117.141 53.3946 117.141 64" stroke="black" stroke-width="10" stroke-linecap="round"/>
<path d="M8 78C8.4512 74.2474 62.9504 73.0362 70.6574 72.75C83.3195 72.2799 96.0734 71 109 71" stroke="black" stroke-width="10" stroke-linecap="round"/>
<path d="M132 30.7359C141.655 26.6714 154.608 27.7493 164.818 27.4734C178.438 27.1053 192.428 26.6236 206.027 27.4734C213.235 27.9238 218.777 27.4967 216.47 35.6763C212.705 49.0213 210.041 62.7465 205.841 75.9455C202.292 87.0972 199.685 98.5129 196.518 109.783C193.748 119.638 189.283 128.797 186.448 138.493C183.639 148.101 182.924 162.711 175.633 170" stroke="black" stroke-width="10" stroke-linecap="round"/>
<path d="M30 162C30.2094 176.999 31 221.982 31 206.979" stroke="black" stroke-width="10" stroke-linecap="round"/>
<path d="M25 157C53.0735 157 81.147 157 109.221 157C113.34 157 116.642 158.564 120.587 158.68C128.063 158.9 125.617 165.405 125.617 171.747C125.617 180.831 125.617 189.916 125.617 199" stroke="black" stroke-width="10" stroke-linecap="round"/>
<path d="M38 212C50.0029 208.67 64.1129 210.316 76.5497 209.093C85.938 208.169 96.5502 207.306 105.93 207.094C115.274 206.883 124.652 207.094 134 207.094" stroke="black" stroke-width="10" stroke-linecap="round"/>
<path d="M87 72C83.5506 73.7646 84.8438 82.6942 83.5385 86.1667C80.4791 94.3051 77.0289 102.378 73.3846 110.25C70.8027 115.827 70.2879 121.38 68.7692 127.25C66.3472 136.612 60 147.873 60 157" stroke="black" stroke-width="10" stroke-linecap="round"/>
<path d="M129 176.512C138.191 176.512 169.926 181.584 174 173" stroke="black" stroke-width="10" stroke-linecap="round"/>
<path d="M92 118.11C100.71 118.11 119.354 125.581 125.285 116.499C134.608 102.223 153.411 127.804 161 113.278" stroke="black" stroke-width="10" stroke-linecap="round"/>
<path d="M109 100C109.647 94.557 121.355 84.8741 126.5 86.0763C133.578 87.7303 133.591 94.2054 142.333 92.8921C147.917 92.0532 151.64 81.357 159 84.6158C164.399 87.0064 168.821 88.702 174 85.9789" stroke="black" stroke-width="10" stroke-linecap="round"/>
<path d="M132 65.5174C136.081 64.7044 140.124 59.5623 144.672 63.0862C148.391 65.9671 156.201 67.156 160.63 64.5823C166.478 61.184 174.136 57.593 181 62.1511" stroke="black" stroke-width="10" stroke-linecap="round"/>
<path d="M43 185H78" stroke="black" stroke-width="10" stroke-linecap="round"/>
<path d="M94 170.205C94.2719 167.909 104.723 166.062 102.753 171.884C100.872 177.442 98.7743 180.985 98.7743 187" stroke="black" stroke-width="10" stroke-linecap="round"/>
<path d="M99 197H100" stroke="black" stroke-width="10" stroke-linecap="round"/>
<path d="M25 22H53" stroke="black" stroke-width="10" stroke-linecap="round"/>
<path d="M25 37.7946C35.9995 37.7946 47.3507 38.8956 58 36" stroke="black" stroke-width="10" stroke-linecap="round"/>
<path d="M25 56C41.8422 54.4842 57.8512 53 75 53" stroke="black" stroke-width="10" stroke-linecap="round"/>
</svg>
