<svg width="609" height="332" viewBox="0 0 609 332" fill="none" xmlns="http://www.w3.org/2000/svg">
<path d="M581.225 88.5269C610.295 111.238 602.178 156.123 602.178 189.366C602.178 221.91 599.559 256.207 599.559 287.586" stroke="black" stroke-width="10" stroke-linecap="round"/>
<path d="M44.2881 33.5237C22.6748 39.6024 16.2356 68.2175 15.4768 87.9449C15.2937 92.7068 12.1724 97.6423 10.8205 102.205C8.75818 109.165 10.2384 118.035 10.2384 125.196C10.2384 140.086 10.2384 154.977 10.2384 169.868C10.2384 212.466 5 255.969 5 298.063" stroke="black" stroke-width="10" stroke-linecap="round"/>
<path d="M5 298.063C6.12769 303.138 27.5802 308.395 32.6472 308.54C43.7006 308.856 50.0193 313.604 60.5853 315.816C81.8326 320.263 106.282 321.636 128.103 321.636C165.482 321.636 202.68 326.875 240.146 326.875C277.009 326.875 313.872 326.875 350.735 326.875C366.594 326.875 381.624 326.452 397.007 324.401C411.049 322.529 426.005 326.82 439.788 322.8C463.094 316.003 491.976 322.612 514.29 312.469C526.066 307.116 543.276 305.797 556.197 303.447C568.604 301.191 580.675 298.338 591.702 292.825" stroke="black" stroke-width="10" stroke-linecap="round"/>
<path d="M36.4302 30.9045C80.165 19.1108 121.528 7.33165 167.245 7.33165C194.865 7.33165 230.301 1.29874 256.734 8.64126C281.35 15.479 308.274 13.4072 332.982 21.0097C343.862 24.3573 354.682 24.9968 364.413 30.9045C373.151 36.21 389.098 41.3411 398.462 44.5826C431.688 56.0836 465.994 60.6553 498.865 70.047C506.5 72.2283 513.553 69.8496 520.401 76.013C524.598 79.7907 540.705 80.6694 547.175 80.6694C554.607 80.6694 558.622 85.9078 565.509 85.9078C570.703 85.9078 582.026 88.1881 586.463 91.1462" stroke="black" stroke-width="10" stroke-linecap="round"/>
<path d="M458.122 119.957C471.338 119.957 484.519 119.048 497.41 121.994C506.643 124.105 516.882 127.296 526.221 127.815C544.793 128.847 562.727 135.672 581.225 135.672" stroke="black" stroke-width="10" stroke-linecap="round"/>
<path d="M25.9536 198.533C26.7599 192.084 43.3707 187.538 49.672 185.437C55.1145 183.623 75.0896 185.569 78.3377 181.509C81.4435 177.626 99.8165 180.199 104.384 180.199C117.141 180.199 129.897 180.199 142.654 180.199C170.166 180.199 197.779 182.818 225.013 182.818C253.604 182.818 281.872 190.676 310.574 190.676C363.835 190.676 416.562 193.295 469.909 193.295C492.851 193.295 515.793 193.295 538.736 193.295C548.553 193.295 558.153 192.442 567.547 195.332C575.831 197.881 582.785 201.153 591.702 201.153" stroke="black" stroke-width="10" stroke-linecap="round"/>
<path d="M44.2881 70.1924C76.0314 70.1924 108.146 51.8579 139.889 51.8579C149.451 51.8579 162.627 52.192 171.465 48.6567C183.271 43.9344 199.134 46.965 211.917 46.6195C234.765 46.002 258.037 44.0003 281.326 44.0003C287.909 44.0003 303.236 43.862 308.246 47.2016C314.606 51.4419 323.011 47.3446 329.781 51.8579" stroke="black" stroke-width="10" stroke-linecap="round"/>
<path d="M25.9536 211.629C69.5037 216.829 123.757 201.037 167.578 201.037C425.279 219.462 267.365 216.868 321.633 216.868C352.788 216.868 383.906 214.249 414.76 214.249C451.699 214.249 492.296 209.098 528.841 214.831C542.433 216.963 561.102 216.534 571.33 226.762C571.35 226.782 542.975 232.498 538.736 232.583C523.856 232.881 509.546 235.202 494.646 235.202C479.169 235.202 464.573 240.441 449.101 240.441C429.624 240.441 411.133 245.255 392.06 245.679C357.283 246.452 322.136 250.917 287.583 250.917C242.296 250.917 196.981 248.298 151.821 248.298C129.562 248.298 105.483 247.501 85.6133 239.859C77.1637 236.609 69.1061 235.278 60.5853 232.001C46.7366 226.674 51.6647 224.725 63.2045 224.725C94.7496 224.725 136.111 224.725 167.578 224.725C208.418 224.725 238.74 229.964 279.58 229.964C328.381 229.964 376.354 235.202 425.237 235.202C452.359 235.202 480.829 237.516 507.887 235.057C519.85 233.969 553.268 227.372 560.271 216.868" stroke="#01A077" stroke-width="25" stroke-linecap="round"/>
<path d="M36.4302 245.679C72.0822 245.679 107.445 250.918 143.235 250.918C162.94 250.918 181.88 256.156 200.858 256.156C256.055 256.156 311.253 256.156 366.45 256.156C389.15 256.156 411.849 256.156 434.549 256.156C452.252 256.156 477.42 257.096 494.209 251.5C519.639 243.023 552.364 243.06 578.605 243.06" stroke="black" stroke-width="10" stroke-linecap="round"/>
<path d="M23.3345 117.338C35.5827 117.338 46.7384 116.704 58.6937 114.865C66.2553 113.701 75.4428 109.481 82.2666 109.481C91.5541 109.481 90.7435 109.481 81.539 109.481C72.6143 109.481 63.6896 109.481 54.7649 109.481C48.0955 109.481 16.0937 113.511 35.5574 111.954C57.5625 110.194 77.1138 101.623 99.2914 101.623" stroke="#01A077" stroke-width="25" stroke-linecap="round"/>
<path d="M468.504 94.7231C489.071 96.3482 507.967 98.692 528.016 102.637C542.042 105.397 555.336 112.094 569.51 113.214C574.173 113.582 588.115 114.684 587.788 114.658C578.076 113.891 565.441 114.864 556.558 110.877C539.23 103.099 515.029 98.3994 495.92 96.8895C492.983 96.6574 481.067 91.3835 479.464 89.0207C476.935 85.291 463.059 86.4107 458.679 86.0646" stroke="#01A077" stroke-width="25" stroke-linecap="round"/>
<path d="M41.6689 130.434C57.9499 121.276 78.0281 117.338 96.6722 117.338" stroke="black" stroke-width="10" stroke-linecap="round"/>
<path d="M41.0215 50.3067C94.4998 31.5766 142.684 24.7109 199.16 24.7109C229.674 24.7109 262.226 27.5549 291.291 27.5549" stroke="#01A077" stroke-width="25" stroke-linecap="round"/>
<path d="M30.0796 267.996C124.909 294.615 230.78 283.877 328.589 283.877C383.658 283.877 438.95 283.884 493.43 278.436C513.084 276.471 531.452 270.643 551.514 270.643C560.641 270.643 574.151 263.394 553.573 268.143C527.074 274.258 501.109 283.877 473.579 283.877C447.615 283.877 423.035 293.97 396.819 294.465C354.12 295.27 312.337 305.052 269.328 305.052C231.046 305.052 192.765 305.052 154.483 305.052C133.415 305.052 118.091 300.914 98.3102 295.053C91.8741 293.146 85.4465 294.29 78.8998 291.671C72.6144 289.157 68.8233 283.877 61.8421 283.877" stroke="#FEFDFB" stroke-width="25" stroke-linecap="round"/>
<path d="M38.02 156.827C52.7331 156.827 64.5704 153.479 79.0466 150.357C106.735 144.385 137.924 140.946 166.394 140.946C196.663 140.946 226.498 138.299 256.829 138.299C325.728 138.299 402.404 129.609 469.755 144.916C496.916 151.089 525.699 153.408 552.103 161.532C558.188 163.405 566.355 167.414 572.689 167.414C583.18 167.414 563.391 170.061 560.631 170.061C520.368 170.061 480.742 175.355 440.345 175.355C388.626 175.355 338.267 170.011 286.827 167.561C224.042 164.572 162.012 162.121 99.0453 162.121C82.2327 162.121 31.795 162.121 48.6075 162.121C98.408 162.121 148.209 162.121 198.009 162.121C272.401 162.121 346.182 146.239 420.494 146.239C433.723 146.239 452.07 142.921 464.167 148.298C476.757 153.893 493.633 147.738 506.517 154.18" stroke="#FEFDFB" stroke-width="25" stroke-linecap="round"/>
<path d="M35.373 82.7144C88.3031 82.7144 140.66 73.5157 193.156 69.6271C229.101 66.9645 264.807 66.8332 300.943 66.8332C327.135 66.8332 352.787 64.1863 379.173 64.1863C396.033 64.1863 411.134 69.48 427.111 69.48" stroke="#FEFDFB" stroke-width="25" stroke-linecap="round"/>
<path d="M119.705 92.0181H175.636" stroke="black" stroke-width="10" stroke-linecap="round"/>
<path d="M278.019 92.0181L340.586 92.0181" stroke="black" stroke-width="10" stroke-linecap="round"/>
<path d="M278.019 107.186H291.291" stroke="black" stroke-width="10" stroke-linecap="round"/>
<path d="M327.314 107.186H340.586" stroke="black" stroke-width="10" stroke-linecap="round"/>
<path d="M197.44 92.0181L197.44 147.949" stroke="black" stroke-width="10" stroke-linecap="round"/>
<path d="M362.39 153.637L418.322 153.637" stroke="black" stroke-width="10" stroke-linecap="round"/>
<path d="M258.111 92.0181L258.111 147.949" stroke="black" stroke-width="10" stroke-linecap="round"/>
<path d="M362.39 92.9661L418.322 92.9661" stroke="black" stroke-width="10" stroke-linecap="round"/>
<path d="M309.303 97.7061L309.303 153.637" stroke="black" stroke-width="10" stroke-linecap="round"/>
<path d="M212.607 92.0181L212.607 135.626" stroke="black" stroke-width="10" stroke-linecap="round"/>
<path d="M362.39 138.47L405.998 138.47" stroke="black" stroke-width="10" stroke-linecap="round"/>
<path d="M242.943 92.0181L242.943 135.626" stroke="black" stroke-width="10" stroke-linecap="round"/>
<path d="M362.39 108.134L405.998 108.134" stroke="black" stroke-width="10" stroke-linecap="round"/>
<path d="M294.135 110.978L294.135 154.586" stroke="black" stroke-width="10" stroke-linecap="round"/>
<path d="M325.418 110.978L325.418 154.586" stroke="black" stroke-width="10" stroke-linecap="round"/>
<path d="M227.775 92.0181L227.775 124.25" stroke="black" stroke-width="10" stroke-linecap="round"/>
<path d="M362.39 123.302L394.622 123.302" stroke="black" stroke-width="10" stroke-linecap="round"/>
<path d="M278.967 122.354L278.967 154.585" stroke="black" stroke-width="10" stroke-linecap="round"/>
<path d="M340.586 122.354L340.586 154.585" stroke="black" stroke-width="10" stroke-linecap="round"/>
<path d="M212.607 139.418L241.995 139.418" stroke="black" stroke-width="10" stroke-linecap="round"/>
<path d="M409.79 138.47L409.79 109.082" stroke="black" stroke-width="10" stroke-linecap="round"/>
<path d="M255.267 154.585L199.336 154.585" stroke="black" stroke-width="10" stroke-linecap="round"/>
<path d="M424.958 95.8101L424.958 151.741" stroke="black" stroke-width="10" stroke-linecap="round"/>
<path d="M118.227 123.326L175.636 123.3" stroke="black" stroke-width="10" stroke-linecap="round"/>
<path d="M175.636 123.302V154.585" stroke="black" stroke-width="10" stroke-linecap="round"/>
<path d="M117.809 92.0181V123.302" stroke="black" stroke-width="10" stroke-linecap="round"/>
<path d="M118.227 155.112H171.866" stroke="black" stroke-width="10" stroke-linecap="round"/>
<path d="M131.081 108.134H175.636" stroke="black" stroke-width="10" stroke-linecap="round"/>
<path d="M118.757 138.47H164.26" stroke="black" stroke-width="10" stroke-linecap="round"/>
<path d="M302.708 27.1299C311.606 29.8679 332.654 31.4388 337.117 40.3643" stroke="#01A077" stroke-width="25" stroke-linecap="round"/>
</svg>
