<svg width="200" height="233" viewBox="0 0 200 233" fill="none" xmlns="http://www.w3.org/2000/svg">
<path d="M62.9259 36C44.6774 72.2285 29.7035 109.431 19.2497 148.344C17.1849 156.03 13.4849 165.122 9.89056 172.258C8.31261 175.391 3.34793 185.562 5.5576 189.29C6.77735 191.349 13.3707 192.827 15.5234 193.935C22.2848 197.416 30.1245 201.438 37.2748 203.914C50.0847 208.35 63.4199 209.488 76.0981 214.065C87.9153 218.33 99.9112 221.696 112.495 223.011C120.298 223.826 123.304 224.677 130 228" stroke="black" stroke-width="10" stroke-linecap="round"/>
<path d="M74 19C94.1273 19.4785 112.031 22.8619 131.27 28.2116C140.877 30.8832 151.18 31.0131 160.557 34.4962C165.911 36.4853 175.561 42.2443 181.153 42.2443C203.807 42.2443 184.744 97.563 179.676 107.845C168.012 131.503 159.599 156.386 149.085 180.505C142.805 194.913 136.571 206.059 136.571 222" stroke="black" stroke-width="10" stroke-linecap="round"/>
<path d="M100.767 7.42524C100.52 5.4561 96.2262 10.8692 95.0612 12.5757C93.2053 15.2943 94.348 21.576 94.348 24.6527C94.348 31.7532 105.476 33 112 33" stroke="black" stroke-width="10" stroke-linecap="round"/>
<path d="M131.889 19C115.564 19 124.188 43 138 43" stroke="black" stroke-width="10" stroke-linecap="round"/>
<path d="M172 31.5574C171.092 24.6922 160.86 21.621 155.967 26.1117C148.803 32.6854 142.74 45.2707 150.922 53" stroke="black" stroke-width="10" stroke-linecap="round"/>
<path d="M80.4 5C74.8164 5.31476 74 11.8418 74 16.5852C74 21.8214 78.822 24.193 82 28" stroke="black" stroke-width="10" stroke-linecap="round"/>
<path d="M195 67C193.46 93.9122 190.932 120.464 186.415 146.943C183.168 165.974 177.232 185.601 176.165 204.889C175.939 208.972 179.193 226.007 170.821 223.804C165.04 222.284 158.976 218.144 154 214.903" stroke="black" stroke-width="10" stroke-linecap="round"/>
<path d="M187 110C181.267 128.302 171.589 147.082 169.489 166.367C168.443 175.971 162.787 184.657 161.4 194.379C159.86 205.172 155 215.164 155 226" stroke="black" stroke-width="10" stroke-linecap="round"/>
<path d="M67.2144 61C66.7198 64.1513 56.2014 80.2786 59.718 83.7251C62.434 86.387 70.9373 86.6532 74.2751 84.8358C78.0926 82.7571 84.1265 74.0336 82.8175 69.5433C82.3954 68.095 73.2724 62.9791 71.9215 62.5378" stroke="#F7D002" stroke-width="10" stroke-linecap="round"/>
<path d="M97.7188 73.1429C96.3876 76.1586 93.9309 80.5982 93.1232 83.4444C92.3146 86.2937 95.7361 85.0204 96.158 87.2857C96.7964 90.7135 106.192 92 109.425 92C116.321 92 116.671 84.3113 117.922 78.6429C118.953 73.971 109.445 70 105.523 70" stroke="#F7D002" stroke-width="10" stroke-linecap="round"/>
<path d="M137.704 79C137.094 82.6171 131.117 97.3358 139.176 97.8415C143.204 98.0943 146.013 104.279 150.134 98.6266C152.05 95.9993 154.733 89.5851 153.814 86.1528C153.774 86.0038 143.356 80.8997 142.12 80.5701" stroke="#F7D002" stroke-width="10" stroke-linecap="round"/>
<path d="M53.6749 101C51.7338 103.123 41.0029 121.694 48.8109 122.097C53.2282 122.325 64.0799 126.709 66.6456 121.344C69.3344 115.721 73.5484 111.776 71.4195 104.851C70.6024 102.193 61.1133 101 58.5389 101" stroke="#F7D002" stroke-width="10" stroke-linecap="round"/>
<path d="M83.6704 109C75.8711 117.71 86.6312 132.731 97.001 130.836C102.229 129.881 109.314 119.579 104.272 116.134C98.6852 112.316 95.4967 110.566 88.3448 110.566" stroke="#F7D002" stroke-width="10" stroke-linecap="round"/>
<path d="M122.777 120C116.788 127.163 109.565 136.172 121.199 141.221C123.824 142.359 132.302 142.391 134.17 140.365C144.275 129.402 132.436 123.08 121.199 123.08" stroke="#F7D002" stroke-width="10" stroke-linecap="round"/>
<path d="M47.2806 142C42.9979 144.946 20.4955 155.063 32.4735 161.754C35.92 163.68 40.4836 165.135 44.4934 164.99C55.5552 164.59 60.6657 146.598 45.7128 146.598" stroke="#F7D002" stroke-width="10" stroke-linecap="round"/>
<path d="M70.5162 152C69.8426 153.227 60.9317 168.089 67.2556 168.83C69.8124 169.13 81.7931 173.154 83.5588 169.425C84.5427 167.348 92.1179 160.573 87.544 158.12C84.8759 156.689 83.8707 153.651 80.6605 153.53C77.8331 153.424 74.9766 153.53 72.1465 153.53" stroke="#F7D002" stroke-width="10" stroke-linecap="round"/>
<path d="M112.031 162.025C110.56 164.75 98.3908 177.706 107.135 178.659C111.021 179.083 118.014 185.509 121.824 179.332C124.124 175.602 128.259 171.173 126.629 165.889C125.333 161.686 112.66 159 108.767 159" stroke="#F7D002" stroke-width="10" stroke-linecap="round"/>
<path d="M78.5468 45.6875C104.308 45.6875 125.581 54.1292 149.521 61.25C156.645 63.3691 163.791 67.3652 170.253 69.2187C176.32 70.9589 164.781 71 162.969 71C158.379 71 153.646 69.0323 149.147 68C132.547 64.1909 114.617 55.8125 97.0374 55.8125C92.1531 55.8125 81.3515 53.6775 77.7063 50.75C73.6584 47.4991 65.3416 44 76.8658 44" stroke="#F7D002" stroke-width="10" stroke-linecap="round"/>
<path d="M24 178C33.2889 180.971 43.297 185.763 53.0803 186.437C61.1878 186.996 67.2667 191.5 75.4065 191.5C80.1804 191.5 90.5551 194.569 94.9184 196.562C99.2474 198.54 108.685 196.885 111.804 200.781C114.045 203.581 121.304 201.932 123.999 204.625C124.15 204.776 110.63 204.083 107.582 203.406C104.078 202.628 102.385 199.065 99.1398 198.344C95.7278 197.586 93.3706 198.084 90.0404 196.562C83.9161 193.765 76.9877 191.5 70.4347 191.5C59.4116 191.5 48.7815 185.376 37.5083 184.75C35.443 184.635 26.44 180.156 28.5028 179.781C36.1224 178.397 46.845 183.581 54.0184 186.062C66.1056 190.244 78.7981 191.414 89.8528 196.937C93.3916 198.706 104.467 197.944 106.738 200.781C108.922 203.509 116.894 205 120.246 205" stroke="#F7D002" stroke-width="10" stroke-linecap="round"/>
</svg>
