<svg width="729" height="653" viewBox="0 0 729 653" fill="none" xmlns="http://www.w3.org/2000/svg">
<path d="M105.55 47.7083C105.55 94.64 95.8257 140.639 93.3697 187.302C92.0556 212.272 93.8846 238.673 90.222 263.395C87.9234 278.911 83.3792 295.473 83.3792 311.158C83.3792 318.266 86.7236 340.415 80.9158 343.319" stroke="#01A077" stroke-width="13" stroke-linecap="round"/>
<path d="M110.477 30.4643C124.396 30.4643 138.015 28.4658 151.808 26.4955C178.83 22.6351 205.197 17.656 232.553 16.2312C257.338 14.9403 224.533 17.8293 219.825 18.0103C202.468 18.6779 185.743 23.0199 168.504 24.99C152.242 26.8486 149.048 28.0009 167.683 28.0009C196.281 28.0009 224.764 25.5375 253.355 25.5375C255.735 25.5375 263.518 25.3974 256.093 25.5375C243.566 25.7738 231.106 27.6987 218.731 29.5063C187.822 34.021 158.781 37.8546 127.721 37.8546" stroke="#01A077" stroke-width="13" stroke-linecap="round"/>
<path d="M90.7695 345.783C71.8283 345.783 46.417 341.545 29.1839 350.162C28.4935 350.507 46.4722 350.709 48.3439 350.709C94.1082 350.709 139.675 345.783 185.474 345.783C193.686 345.783 201.897 345.783 210.109 345.783C210.857 345.783 221.118 346.232 221.057 346.33C219.653 348.578 212.615 348.338 210.109 349.478C198.783 354.626 184.198 353.173 172.063 353.173" stroke="#01A077" stroke-width="13" stroke-linecap="round"/>
<path d="M530.034 28.6183C505.308 28.6183 500.725 31.0817 476 31.0817C459.486 31.0817 488.885 28.6183 505.4 28.6183C522.878 28.6183 539.932 28.3821 557.268 26.018C567.382 24.6389 597.642 22.4941 587.514 21.228C575.422 19.7166 562.356 18.7646 550.152 18.7646C535.938 18.7646 521.252 16.9713 507.179 15.0695C490.762 12.851 507.14 18.1116 513.063 19.8595C529.714 24.7726 545.671 27.8301 562.743 31.0817C567.467 31.9816 572.19 35.7503 576.839 36.0086C587.418 36.5963 592.394 38.8197 604.073 34.7769C605.814 34.1743 612.879 30.3359 613.516 33.682C615.354 43.3275 613.873 54.6617 613.79 64.4748C613.445 105.177 613.317 146.645 610.095 187.235C609.246 197.936 608.863 208.537 608.863 219.26C608.863 229.526 608.75 198.712 609.411 188.467C611.699 152.994 618.717 118.621 618.717 82.8137C618.717 31.5572 623.644 185.248 623.644 236.504C623.644 252.096 628.028 266.607 628.571 281.804C628.855 289.752 628.365 282.82 627.065 279.066C619.939 258.479 608.863 233.32 608.863 211.459C608.863 210.161 608.863 201.018 608.863 203.932C608.863 224.141 624.257 227.071 624.257 247.28C624.257 272.608 618.717 303.689 634.592 319.302C642.213 322.073 646.219 321.779 655.395 321.218C667.619 320.472 679.856 319.628 692.072 318.755C701.641 318.071 728.521 319.834 720.539 314.512C713.935 310.11 691.792 314.376 684.271 314.376C668.533 314.376 652.794 314.376 637.056 314.376C618.535 314.376 674.098 314.376 692.62 314.376" stroke="#01A077" stroke-width="13" stroke-linecap="round"/>
<path d="M336.746 94.6623C339.423 97.1694 354.956 107.441 347.468 97.3295C345.756 95.017 336.322 80.9231 333.57 81.2274C327.533 81.8948 340.762 102.214 342.107 103.553C343.335 104.775 359.183 111.741 359.183 108.887C359.183 104.109 348.168 93.5806 344.788 90.2169C341.16 86.6066 338.868 84.5378 335.357 81.8201C330.169 77.8054 338.637 95.5793 343.894 99.5028C352.692 106.068 363.934 105.331 374.273 105.331C385.502 105.331 392.143 107.769 392.143 94.6623C392.143 82.0177 392.143 69.3731 392.143 56.7285C392.143 55.6694 392.446 50.9484 392.044 55.148C391.231 63.6376 390.356 71.7627 390.356 80.3383C390.356 84.9923 386.994 100.645 396.114 99.9967C414.892 98.6621 424.867 69.2326 430.067 54.9504C430.984 52.4344 435.434 33.2281 430.365 44.4791C425.334 55.6479 420.837 67.1087 417.36 78.8566C417.333 78.9463 413.733 97.7527 417.956 92.6866C426.222 82.7677 430.773 66.6244 434.932 54.5553C436.292 50.6083 437.131 35.2619 432.45 46.0597C429.003 54.0098 425.585 61.9663 422.026 69.8671C421.427 71.1964 420.735 78.1633 420.735 75.4978C420.735 64.5089 422.906 53.761 422.522 42.701C422.238 34.4929 417.159 51.9545 416.169 53.5674C407.59 67.5352 418.838 33.3058 418.948 38.552C419.228 51.9254 415.374 65.2015 415.374 78.5602C415.374 83.5118 416.26 87.4588 412.595 91.106C405.538 98.1275 383.698 94.7994 373.876 96.8356C357.932 100.141 354.807 99.1202 340.718 94.2671C331.275 91.0147 339.528 98.6088 343.299 101.972C349.931 107.889 355.739 116 365.338 116" stroke="#F7D002" stroke-width="13" stroke-linecap="round"/>
<path d="M385 120C385 126.071 380.766 133.122 378.422 138.208C358.405 181.636 332.486 222.134 307.753 262.995C294.444 284.983 279.526 306.781 268.781 330.187C266.316 335.556 263 341.915 263 348" stroke="black" stroke-width="11" stroke-linecap="round"/>
<path d="M254 341C283.136 354.349 319.36 347.086 350.395 346.541C382.27 345.98 414.119 344.439 446 344.439" stroke="black" stroke-width="11" stroke-linecap="round"/>
<path d="M394.162 195.295C391.079 196.023 392.139 202.935 392.33 205.284C392.74 210.308 399.861 202.797 401.489 201.826C407.575 198.199 406.984 195.637 406.984 189.245C406.984 184.356 404.118 182.163 398.741 183.29C391.873 184.731 392.33 190.126 392.33 195.295" stroke="black" stroke-width="11" stroke-linecap="round"/>
<path d="M426 300C437.769 300 442.504 293.883 450.981 285.307C467.122 268.978 476.944 253.347 487 233" stroke="black" stroke-width="11" stroke-linecap="round"/>
<path d="M382.713 128.558C373.294 129.233 364.254 130.927 354.782 129.344C337.23 126.41 324.439 104.486 318.031 89.6371C316.503 86.0972 313.518 75.4919 315.875 71.3561C317.113 69.1823 330.072 79.0456 331.751 80.2017C337.787 84.3573 378.508 105.511 379.577 102.414C381.826 95.8988 381.13 88.5739 382.027 81.7743C383.931 67.3504 386.793 53.3778 388.103 38.9221C388.53 34.2133 391.351 37.7516 391.534 40.4947C391.962 46.9459 394.158 53.1386 397.61 58.5791C400.202 62.6643 401.636 53.8203 402.51 51.6992C405.329 44.8603 414.854 23 423.973 23C431.872 23 433.305 58.2909 433.773 63.6899C434.704 74.4299 433.062 87.2936 423.287 93.1753" stroke="black" stroke-width="11" stroke-linecap="round"/>
<path d="M36 441C43.3615 441.434 49.6071 447.032 57.5724 447.944C76.6933 450.135 95.9937 450.207 115.165 451.714C129.55 452.845 144.566 453.002 158.804 455.286C162.629 455.899 160.403 464.05 159.893 466.397C155.144 488.242 141.463 510.644 126.05 526.714C121.049 531.928 114.146 541 107.248 541" stroke="black" stroke-width="11" stroke-linecap="round"/>
<path d="M69.8724 465.893C56.7684 490.508 78.02 473.901 71.8469 466.801C64.9142 458.828 60.7502 469.87 60.1092 475.178C59.1079 483.47 65.251 488.351 67.8978 478.61" stroke="black" stroke-width="11" stroke-linecap="round"/>
<path d="M191 495C210.128 503.488 237.082 498.607 257.093 497.655C266.942 497.187 283.656 493.543 293.341 497.262C300.659 500.072 290.782 514.912 288.613 518.702C273.785 544.612 257.745 570.017 239.856 593.938C233.469 602.48 219.368 614.816 219.368 626" stroke="black" stroke-width="11" stroke-linecap="round"/>
<path d="M222.611 534.251C227.1 542.574 232.149 542.147 231.57 532.493C231.158 525.604 219.279 536.834 219.027 541.286C218.278 554.515 233.455 541.228 236.548 536.792C241.912 529.098 230.901 518.634 227.987 527.217" stroke="black" stroke-width="11" stroke-linecap="round"/>
<path d="M354 538.826C370.615 538.826 388.033 534.981 404.413 532.521C410.838 531.556 450.937 519.263 449.983 531.141C448.248 552.758 442.061 576.005 435.452 596.558C429.989 613.552 429.388 630.194 425.172 647" stroke="black" stroke-width="11" stroke-linecap="round"/>
<path d="M143 423.333C162.708 416.945 181.925 409.468 201.331 402.222C205.92 400.509 211.045 398 216.087 398C224.102 398 221.606 404.313 222.326 411.772C224.239 431.584 225 454.968 225 474" stroke="black" stroke-width="11" stroke-linecap="round"/>
<path d="M168 420C168 430.98 177 438.573 177 423.767" stroke="black" stroke-width="11" stroke-linecap="round"/>
<path d="M28.5875 446.861C33.2563 442.125 42.9005 416.416 32.0083 415.035C25.0914 414.158 16.2959 430.187 22.3324 434.269C24.6339 435.826 17.7544 431.093 15.2954 429.808C7.51419 425.741 6.92717 435.651 6.10823 441.111C4.59925 451.17 19.2418 454 26.8282 454" stroke="black" stroke-width="11" stroke-linecap="round"/>
<path d="M135.635 435.588C144.164 425.226 110.12 402.95 105.479 423.247C103.216 433.147 101.67 421.311 96.7502 425.561C90.9987 430.53 101.057 442.953 103.496 446" stroke="black" stroke-width="11" stroke-linecap="round"/>
<path d="M177.177 498.144C177.177 491.003 167.393 476.756 158.951 477.003C154.353 477.138 150.095 488.885 149.838 492.859C149.761 494.049 149.792 487.378 148.42 487.378C146.04 487.378 154.532 499.467 154.901 499.906C161.513 507.784 167.909 514 179 514" stroke="black" stroke-width="11" stroke-linecap="round"/>
<path d="M363 540.467C357.502 534.788 347.347 522.831 337.857 526.946C331.276 529.8 322.225 541.608 331.621 545.682C338.86 548.821 327.733 527.745 323.801 524.822C317.356 520.031 318.783 537.629 320.237 540.467" stroke="black" stroke-width="11" stroke-linecap="round"/>
<path d="M96 29C96 64.526 93.5809 100.015 90.6 135.415C86.6602 182.204 83.2492 228.839 80.7 275.725C80.0629 287.443 78 299.278 78 311" stroke="black" stroke-width="11" stroke-linecap="round"/>
<path d="M111 16C194.395 16 277.688 14 361 14" stroke="black" stroke-width="11" stroke-linecap="round"/>
<path d="M487 6C525.704 6 563.303 7.5258 601.687 12.0354C606.345 12.5827 632.241 9.97653 632.404 17.0815C633.745 75.6538 632.404 134.407 632.404 193" stroke="black" stroke-width="11" stroke-linecap="round"/>
<path d="M120 50C100.473 124.125 109.973 200.535 100.421 275.622C97.9127 295.34 99.4887 316.109 99.4887 336" stroke="black" stroke-width="11" stroke-linecap="round"/>
<path d="M148 339.862C129.92 339.862 112.828 338.605 94.9603 336.286C90.6159 335.723 87.8239 334.345 83.3486 334.345C76.7474 334.345 52.7294 330.325 49.2024 336.184C46.0766 341.377 46.8946 346.226 47.9231 352.633C48.3255 355.14 47.6301 363.492 50.9737 363.77C57.7138 364.329 64.8824 363.81 71.5401 362.85C95.991 359.324 121.485 358.252 146.229 358.252" stroke="black" stroke-width="11" stroke-linecap="round"/>
<path d="M470 86C530.603 152.918 607.437 220.707 627.729 312.51C633.894 340.399 634.173 369.697 634.173 398.094C634.173 420.343 636.275 443.95 633.777 466.087C631.374 487.374 627.133 510.338 621.682 531.115C618.74 542.326 613.658 554.17 612.66 565.605C612.016 572.987 598.449 625 593.13 625" stroke="black" stroke-width="11" stroke-linecap="round"/>
<path d="M134 42C184.299 37.1893 234.417 40.409 284.576 36.4444C298.295 35.3601 314.432 34 328 34" stroke="black" stroke-width="11" stroke-linecap="round"/>
<path d="M496 37C505.928 37 515.857 37 525.785 37C540.833 37 555.335 40.1298 570.218 40.5904C580.876 40.9202 592.678 36.2975 594.436 49.7657C598.474 80.6888 598.777 111.924 603.225 142.816C605.297 157.202 604.983 171.508 604.983 186" stroke="black" stroke-width="11" stroke-linecap="round"/>
<path d="M665 317.363C677.932 317.363 691.338 316.547 704.269 317.363C708.613 317.637 706.473 330.398 706.473 332.654C706.473 344.39 706.031 343.998 692.047 343.998" stroke="black" stroke-width="11" stroke-linecap="round"/>
<path d="M429 591C425.932 595.719 409.75 609.057 403.741 599.813C402.349 597.672 398.635 594.525 396 594.525" stroke="black" stroke-width="11" stroke-linecap="round"/>
<path d="M240 588.078C229.064 590.699 219.092 591.6 209.94 584.427C205.107 580.64 201.392 570.237 197 568" stroke="black" stroke-width="11" stroke-linecap="round"/>
<path d="M138 516.855C125.906 516.758 113.618 518.419 103.203 512.526C100.546 511.023 98.7949 508.904 96 508" stroke="black" stroke-width="11" stroke-linecap="round"/>
<path d="M287 269C272.35 254.232 255.214 239.218 237.794 227.929C233.238 224.976 228.193 223.828 225 219" stroke="black" stroke-width="11" stroke-linecap="round"/>
<path d="M187 265C194.186 272.147 199.786 280.942 207.401 287.455C214.018 293.114 221.896 297.93 228 304" stroke="black" stroke-width="11" stroke-linecap="round"/>
<path d="M189.236 269C183.454 268.343 178.477 258.927 175.911 254.382C170.718 245.184 163.023 232.055 161.116 221.341C159.548 212.525 174.34 223.867 175.127 224.545C181.035 229.635 187.658 233.335 191 240.165" stroke="black" stroke-width="11" stroke-linecap="round"/>
<path d="M172.625 231.192C171.905 229.063 162.952 194.699 169.207 196.038C174.208 197.109 178.542 202.169 181.671 206.283C188.38 215.105 197.894 226.934 207 233" stroke="black" stroke-width="11" stroke-linecap="round"/>
<path d="M192.815 212.196C192.815 204.831 190.917 195.054 192.914 187.986C194.448 182.559 212.633 201.264 213.892 202.092C218.671 205.233 232 217.359 232 223" stroke="black" stroke-width="11" stroke-linecap="round"/>
<path d="M391.602 546.726C389.223 554.42 394.419 556.666 398.057 550.264C399.939 546.951 398.748 539.006 396.728 543.188" stroke="black" stroke-width="13" stroke-linecap="round"/>
<path d="M374 347C362.101 369.385 350.745 394.716 343 419" stroke="black" stroke-width="13" stroke-linecap="round"/>
<path d="M402.782 161C396.245 161 385.284 171.227 380.518 175.94C373.057 183.318 367 191.201 367 201.791C367 211.984 368.224 216.073 375.548 223.316C379.098 226.827 386.85 230 392.047 230C400.108 230 405.768 229.561 412.821 226.462C421.364 222.707 436.651 212.535 438.464 202.675C441.319 187.146 432.555 170.13 417.095 166.308" stroke="black" stroke-width="13" stroke-linecap="round"/>
<path d="M432 174C442.937 170.285 454.313 167.852 461.333 158.333C464.807 153.623 470.931 151.092 473.877 146.148C478.407 138.543 496 135.019 496 127" stroke="black" stroke-width="13" stroke-linecap="round"/>
<path d="M339 182C343.54 185.313 350.246 187.49 353.769 191.333C356.041 193.812 359.342 190.899 361 194" stroke="black" stroke-width="13" stroke-linecap="round"/>
<path d="M264 24C294.464 24 323.832 26 354 26" stroke="#01A077" stroke-width="10" stroke-linecap="round"/>
</svg>
