<svg width="134" height="126" viewBox="0 0 134 126" fill="none" xmlns="http://www.w3.org/2000/svg">
<path d="M51.2844 56.9046C51.2844 50.1571 47.9147 45.9426 44.1279 40.6832C43.3961 39.6668 38.3356 34.0038 36.9714 34.0038C32.7748 34.0038 40.9261 56.7043 43.4122 59.6877C45.8144 62.5703 52.9394 74.7009 56.3734 76.2271M56.3734 76.2271C56.9881 76.5003 55.3125 74.8631 56.3734 76.2271ZM56.3734 76.2271C59.2263 79.8951 62.645 83.4728 66.313 86.3258C69.3028 88.6511 72.4257 90.6547 75.2984 93.0052C81.7236 98.2622 95.8106 86.5943 99.6305 82.3499C107.064 74.09 104.242 69.9878 104.242 59.7672C104.242 57.1313 102.564 50 99.6305 50C93.077 50 86.5407 51.5603 81.3417 56.1094C79.1985 57.9847 64.296 59.796 68 63.5C70.2576 65.7576 84.948 74 88.5 74" stroke="#01A077" stroke-width="24" stroke-linecap="round"/>
<path d="M53.8179 113.451C30.1951 100.358 16.8763 86.8814 9.98682 64.5192C6.11935 51.9659 9.808 29.0817 30.6402 22.6636C40.7778 19.5404 55.791 26.5186 58.1026 34.0217C59.7428 39.3454 61.383 44.6692 63.0231 49.993C64.9351 56.199 77.1331 43.4526 82.2836 39.914C110.413 20.5879 126.292 50.4838 119.756 68.7841C111.954 90.6314 90.2351 106.895 63.8844 115.013" stroke="black" stroke-width="10" stroke-linecap="round"/>
</svg>
