<svg width="104" height="160" viewBox="0 0 104 160" fill="none" xmlns="http://www.w3.org/2000/svg">
<path d="M53.1574 35.1716C49.4534 41.7693 37.4849 57.0471 52.27 61.5964C64.5662 65.3798 65.7673 46.3825 50.0022 47.5952C43.1711 48.1207 47.9768 59.7071 53.9462 52.0322C56.1663 49.1777 54.9322 43.2414 54.9322 39.7072C54.9322 33.9254 58.2838 17.7548 50.0022 17.4236C40.125 17.0285 33.2152 18.6997 28.3102 27.2836C24.3415 34.2288 17.6614 39.633 17.6614 47.5952C17.6614 51.9448 17.011 57.3964 20.4222 60.8076C25.7436 66.129 25.0475 59.2232 28.4088 55.5818C32.4479 51.2061 31.0473 46.0555 34.029 41.2848C35.1614 39.473 37.8411 41.4662 38.959 39.51C39.8606 37.9321 40.4076 35.2952 42.5086 35.1716C49.6824 34.7496 68.8029 28.9938 74.455 36.059C77.4851 39.8466 81.2525 40.6911 81.5542 45.8204C81.6861 48.063 83.8974 54.1182 85.4982 56.0748C95.9022 68.7907 69.7764 89.2149 69.1306 100.839C69.0271 102.703 70.2501 110.788 68.1446 111.389C64.5934 112.404 59.5172 111.488 55.8196 111.488C51.9742 111.488 48.1288 111.488 44.2834 111.488C38.6003 111.488 40.9329 106.067 38.1702 102.614C31.9449 94.8324 30.3397 87.0994 25.648 78.6542C24.0965 75.8616 26.0714 70.1547 21.9998 68.9914C18.8295 68.0856 14.1118 62.7074 14.1118 59.1314C14.1118 42.1255 17.8661 22.9528 37.973 19.297C53.8839 16.4041 71.9059 15.287 82.5402 28.9598C90.3898 39.0521 100.252 64.6959 86.8786 75.2032C84.6823 76.9289 82.731 79.1092 81.357 81.5136C78.8704 85.8652 74.7149 86.0158 71.2998 88.81C66.5019 92.7355 65.1377 86.1975 62.0314 83.0912C60.9695 82.0292 60.2566 77.4482 60.2566 78.95C60.2566 82.6968 60.2566 86.4436 60.2566 90.1904C60.2566 97.4071 65.6514 107.928 55.9182 104.389C41.1821 99.0302 28.5819 79.4376 19.4362 68.0054C17.4709 65.5488 17.0782 59.8468 19.0418 65.7376C20.1526 69.0701 24.7606 74.5131 24.7606 77.7668C24.7606 81.2159 18.6406 78.1034 17.6614 76.8794C15.5199 74.2026 15.0759 71.016 13.2244 68.7942C7.96909 62.4879 13.1842 42.1539 16.281 35.9604C19.3197 29.883 22.114 20.5718 29.1976 17.4236C37.9723 13.5237 45.1197 13.874 54.9322 13.874C68.2606 13.874 73.366 18.735 76.2298 31.622" stroke="#F7D002" stroke-width="10" stroke-linecap="round"/>
<path d="M36.6765 24.0654C33.8023 32.8197 18.2504 59.4783 32.5807 63.3103C40.8685 65.5264 52.7517 64.5659 61.0994 63.3103C77.7322 60.8085 77.3476 46.5281 68.8358 33.9222C56.793 16.0871 36.3727 24.1028 28.485 42.1363C24.1029 52.1549 23.8759 69.5728 28.485 79.5558C32.9616 89.2518 41.0856 86.4921 49.2672 86.4921C59.861 86.4921 75.497 87.488 79.7578 72.6195C81.9686 64.9048 86.9074 42.4973 81.8815 35.3825C71.6754 20.9342 62.8863 19.2516 46.5366 20.9623C24.9076 23.2255 20.9956 58.3201 30.6087 76.6353C35.7667 86.4625 61.3631 75.5362 67.6222 73.3496C75.7444 70.5122 80.1139 63.8932 80.3646 53.6359C80.8995 31.7537 47.5864 15.3375 35.1595 33.0096C21.8022 52.0048 12.8546 105.24 43.3511 106.206C60.9951 106.765 90.8711 99.1834 81.5782 70.4291C76.0717 53.3911 67.6139 42.3604 57.0036 31.9144C39.1125 14.3003 30.6947 26.1654 31.2155 54.3661C31.6384 77.2659 71.344 82.6389 76.2688 63.6753C81.2912 44.3363 75.6693 18.3224 56.3968 17.4942C43.8383 16.9545 37.2597 21.2084 31.2155 34.6524C26.0997 46.0312 20.1749 70.3441 34.5528 75.9051C54.3726 83.5709 64.1835 59.4443 61.0994 39.0332C60.1926 33.0322 51.7004 30.7818 47.5985 30.6366C33.5797 30.1405 25.8612 50.1918 23.6307 64.9531C19.6013 91.6201 42.1352 114.368 57.1553 87.9524C62.8613 77.9175 66.5913 62.6191 63.6782 50.3503C62.3073 44.5767 50.727 38.2424 46.0816 41.2236C41.3135 44.2836 25.9763 68.8707 31.8223 75.9051C37.9497 83.2783 39.434 52.948 39.407 51.8106C39.2077 43.4177 29.8899 47.2245 27.2714 52.1757C22.6419 60.9296 28.4626 77.3074 34.4011 83.024C57.5163 105.276 73.2399 71.9327 60.6443 47.7948C56.7237 40.2816 26.0673 14.5396 20.9002 33.1921C15.5055 52.6664 29.0893 73.3496 45.0197 73.3496C49.5243 73.3496 63.5018 76.8379 63.9816 69.3339C64.279 64.6804 69.345 52.0831 66.1053 47.7948C56.1428 34.6083 49.2077 28.1957 33.946 30.8192C11.9289 34.6039 20.3062 79.1651 34.0977 88.5C54.6217 102.392 81.0771 100.213 80.3646 66.7784C80.2987 63.6873 68.7613 14.5669 80.2129 22.6051C88.5009 28.4226 88.7097 56.3393 83.0951 63.4928C73.8525 75.2687 65.8049 73.3496 53.0595 73.3496" stroke="#FFEB7F" stroke-opacity="0.7" stroke-width="10" stroke-linecap="round"/>
<path d="M28.3101 113.263C22.7346 99.6338 14.0121 86.8753 7.8999 73.4284C6.09457 69.4567 6.31206 63.3676 5.6321 59.0328C3.43557 45.0299 7.06847 36.0135 14.9005 24.6214C25.0383 9.8755 35.4563 5 53.1573 5" stroke="black" stroke-width="10" stroke-linecap="round"/>
<path d="M76.8864 114.854C82.1758 101.181 90.4505 88.3817 96.249 74.8917C97.9616 70.9072 97.7553 64.7985 98.4003 60.4498C100.484 46.402 97.0377 37.3566 89.6077 25.9279C79.9903 11.1347 70.107 6.24353 53.3147 6.24353" stroke="black" stroke-width="10" stroke-linecap="round"/>
<path d="M30.0848 118.587C30.0848 126.472 27.3784 140.728 33.6344 146.984C39.8429 153.193 48.7855 154.083 57.1012 154.083C78.7545 154.083 79.7792 130.986 79.7792 115.038" stroke="black" stroke-width="10" stroke-linecap="round"/>
<path d="M28.3101 115.038C32.5538 115.509 35.0113 118.587 39.9449 118.587C44.8581 118.587 49.3467 120.362 54.0447 120.362C59.2522 120.362 68.3873 121.848 70.9053 116.813" stroke="black" stroke-width="10" stroke-linecap="round"/>
<path d="M31.8599 127.461C33.0218 125.718 46.8964 132.786 50.4953 132.786C56.1155 132.786 61.7357 132.786 67.3559 132.786" stroke="black" stroke-width="10" stroke-linecap="round"/>
<path d="M30.085 139.885C37.1914 141.608 43.2262 145.209 50.5938 145.209C55.5895 145.209 60.5852 145.209 65.581 145.209" stroke="black" stroke-width="10" stroke-linecap="round"/>
<path d="M46.0581 118.587C48.9553 114.497 59.5 95.8683 51.3825 91.5709C45.7708 88.6 46.0581 86.4886 46.0581 80.4291C46.0581 79.6277 52.2749 70.793 52.3685 70.7663C56.575 69.5644 60.0448 74.1666 60.2566 77.7669C60.6098 83.7722 47.1119 83.1348 56.7069 89.3031C64.6152 94.387 56.9106 95.3993 56.7069 99.0645C56.4284 104.078 60.2566 106.908 60.2566 111.488" stroke="black" stroke-width="10" stroke-linecap="round"/>
</svg>
