<svg width="801" height="522" viewBox="0 0 801 522" fill="none" xmlns="http://www.w3.org/2000/svg">
<path d="M295.882 43.8166C273.192 43.8166 251.82 44.7979 229.636 47.7429C227.771 47.9905 217.711 49.2204 216.746 50.5019C215.333 52.3775 212.904 51.3661 211.351 53.7916C209.055 57.3761 208.802 61.4687 205.955 64.8278C198.627 73.475 204.141 87.7168 201.958 98.1486C197.239 120.7 198.68 148.89 200.659 172.006C201.613 183.153 205.3 192.04 207.753 202.462C209.235 208.756 210.97 219.123 214.148 224.428C217.578 230.152 218.831 236.109 222.142 242.044C225.188 247.504 228.638 252.52 231.534 257.749C236.927 267.485 260.792 271.097 269.603 273.879C284.279 278.512 300.338 280.67 315.666 280.67C354.235 280.67 392.803 280.67 431.372 280.67C452.627 280.67 473.962 282.58 495.42 282.58C511.976 282.58 531.672 286.041 547.678 282.156C567.247 277.405 587.766 279.925 607.03 271.969C610.858 270.388 621.441 267.063 624.116 264.222C626.469 261.723 630.191 259.065 632.109 256.688C633.61 254.828 633.306 251.468 634.907 250.108C640.264 245.557 640.866 239.695 641.202 232.917C641.439 228.129 643.406 222.163 644.799 217.637C647.471 208.956 647.818 200.207 650.195 191.532C653.831 178.255 662.24 162.026 662.784 148.448C663.28 136.072 663.174 122.917 664.983 110.67C666.439 100.809 667.462 90.2406 666.282 80.2148C665.295 71.8285 658.115 69.906 655.59 63.8727C653.752 59.4794 647.436 59.177 643.6 58.0363C634.413 55.3043 625.326 52.0448 616.322 48.6979C600.206 42.7073 584.959 44.4696 568.161 43.7104C527.372 41.8671 486.626 41.9064 445.76 41.9064C408.296 41.9064 368.749 36.9057 332.952 50.3958C315.589 56.9392 298.577 63.3011 281.494 70.5581C271.308 74.8853 239.702 89.1721 238.329 103.03C237.204 114.375 251.67 119.652 259.511 121.494C285.99 127.716 313.014 125.903 339.647 121.707C376.303 115.931 413.358 113.733 450.157 109.185C493.496 103.828 534.745 95.7733 578.553 97.4057C596.166 98.0621 614.242 104.384 627.613 116.295C637.897 125.455 637.273 141.515 635.407 155.027C631.73 181.652 591.069 181.344 573.257 181.344C556.148 181.344 540.052 182.082 523.397 177.312C503.403 171.586 485.214 161.415 465.744 154.285C426.54 139.927 382.504 128.27 340.846 126.164C305.53 124.378 258.444 120.013 228.736 143.991C216.981 153.48 219.021 170.257 230.335 178.479C241.365 186.494 254.976 187.132 267.905 188.56C294.875 191.539 321.555 192.654 348.639 192.805C389.345 193.033 430.688 199.309 471.34 195.776C496.836 193.561 522.574 189.446 547.478 183.148C559.35 180.146 580.967 177.498 588.545 165.427C600.595 146.23 548.986 140.202 543.881 139.534C510.713 135.199 476.487 137.412 443.163 137.412C411.342 137.412 377.234 133.279 345.841 138.685C326.217 142.065 311.943 150.644 295.882 162.243C275.58 176.905 252.859 221.982 267.905 234.828C287.984 251.971 353.28 231.049 377.915 232.917C417.38 235.911 457.033 234.828 496.619 234.828C517.463 234.828 537.998 231.007 558.769 231.007C572.258 231.007 587.688 231.121 590.643 213.074C594.663 188.527 578.792 171.091 563.665 155.24C530.654 120.649 490.43 106.574 447.959 89.6592C427.537 81.5258 410.128 74.3783 388.207 74.3783C366.52 74.3783 337.441 78.6992 319.263 91.5693" stroke="#F7D002" stroke-width="72" stroke-linecap="round"/>
<path d="M190.721 42.1927C190.721 55.1461 190.721 68.0995 190.721 81.0529C190.721 100.391 186.069 119.1 185.467 138.352C184.748 161.376 185.368 184.51 185.368 207.547C185.368 224.492 181.768 245.917 185.467 262.566C188.659 276.932 199.119 280.039 211.735 284.87C241.309 296.198 271.44 299.52 302.729 302.814C389.043 311.9 478.178 306.283 565.007 306.283C584.584 306.283 603.978 304.499 623.489 304.499C630.383 304.499 642.674 301.968 648.567 298.154C653.088 295.228 657.715 292.276 661.552 288.439C664.247 285.744 663.701 281.158 665.319 277.733C671.802 264.002 677.309 245.376 677.808 230.149C678.393 212.298 683.879 194.7 684.846 176.815C685.764 159.817 686.729 143.101 686.729 126.059C686.729 101.743 687.579 77.4513 683.26 53.6921C679.983 35.6698 660.211 23.0508 642.917 19.3921C629.14 16.4774 616.135 11.1696 601.682 10.1727C581.753 8.79813 560.844 10.2153 541.118 7.39698C500.019 1.52499 456.833 8.28918 415.53 8.28918C397.201 8.28918 379.094 11.858 360.815 11.858C338.658 11.858 314.318 11.9565 292.42 15.0302C270.963 18.0421 248.614 17.6297 227.495 20.8791C220.673 21.9287 216.227 27.3584 208.959 27.9175C202.727 28.397 199.899 35.3026 197.857 40.4083" stroke="black" stroke-width="10" stroke-linecap="round"/>
<path d="M214.512 53.3241C214.512 81.5001 214.512 109.676 214.512 137.852C214.512 149.656 217.313 166.454 214.116 177.642C210.85 189.075 209.167 198.28 209.167 210.107C209.167 221.86 205.253 234.255 207.485 246.531C207.957 249.13 221.625 263.356 223.421 263.556C230.778 264.373 234.379 270.682 241.93 270.682C250.409 270.682 258.888 270.682 267.368 270.682C287.11 270.682 308.035 269.067 327.746 270.781C368.663 274.339 408.839 277.809 450.085 277.809C483.574 277.809 517.062 277.809 550.55 277.809C562.362 277.809 574.174 277.809 585.985 277.809C592.47 277.809 599.659 278.862 605.682 276.027C610.192 273.905 615.796 270.972 620.727 270.682C625.819 270.383 634.699 259.423 634.98 254.648C635.514 245.572 640.754 236.473 642.206 227.032C643.249 220.253 648.868 215.633 649.234 208.325C649.44 204.189 651.015 200.837 651.015 196.745C651.015 185.443 652.797 174.439 652.797 162.894C652.797 142.867 652.797 122.84 652.797 102.814C652.797 97.8977 652.797 92.9817 652.797 88.0657C652.797 82.7514 649.482 79.1689 649.234 74.7036C648.777 66.4816 647.159 59.86 641.216 55.1057C621.661 39.4618 599.738 40.359 575.79 35.9037C566.038 34.0894 554.987 35.5078 545.106 35.5078C532.534 35.5078 519.781 32.3176 507.098 31.9446C485.407 31.3066 463.655 32.7307 441.969 31.8456C422.509 31.0513 403.25 30.1629 383.67 30.1629C367.909 30.1629 352.746 28.9143 337.842 33.3303C323.958 37.4439 308.948 34.7155 294.686 35.5078C289.83 35.7776 283.157 39.0315 277.761 39.9619C269.278 41.4245 259.629 42.6343 251.036 42.6343C237.085 42.6343 222.047 47.1631 216.294 58.6689" stroke="black" stroke-width="10" stroke-linecap="round"/>
<path d="M393.876 376.523C377.937 376.523 377.797 389.486 377.797 401.181C377.797 412.695 398.466 419.957 406.283 410.966C413.046 403.187 425.252 397.27 422.362 384.449C420.764 377.361 406.487 373 399.236 373" stroke="black" stroke-width="10" stroke-linecap="round"/>
<path d="M395.797 392.043C402.679 392.043 391.666 391.298 398.797 396" stroke="black" stroke-width="10" stroke-linecap="round"/>
<path d="M461.797 381.18C461.797 394.598 465.167 410.538 480.709 413.348C494.099 415.768 504.797 411.746 504.797 396.324C504.797 385.548 501.661 380.823 493.649 374.45C487.084 369.227 472.493 368.736 465.38 372.272" stroke="black" stroke-width="10" stroke-linecap="round"/>
<path d="M480.797 390.474C481.312 395.122 488.752 394.559 487.694 392.305C486.485 389.729 484.096 383.856 482.623 386.812" stroke="black" stroke-width="10" stroke-linecap="round"/>
<path d="M427.797 391.787C436.268 391.787 444.598 395.47 452.797 390" stroke="black" stroke-width="10" stroke-linecap="round"/>
<path d="M443.644 373C446.498 383.046 452.502 391.759 455.578 401.727C456.295 404.05 455.57 406.514 456.361 408.81C457.366 411.73 460.234 412.509 461.252 414.811C462.236 417.039 470.967 433.275 469.665 434.586C465.557 438.716 453.628 444.88 448.046 447.375C441.284 450.397 435.382 458 427.797 458" stroke="black" stroke-width="10" stroke-linecap="round"/>
<path d="M406.797 447C406.797 463.931 409.091 478 427.797 478" stroke="black" stroke-width="10" stroke-linecap="round"/>
<path d="M356.797 374C342.154 419.426 315.797 460.592 315.797 508" stroke="black" stroke-width="10" stroke-linecap="round"/>
<path d="M538.797 385C560.029 383.382 577.682 355.606 587.797 340" stroke="black" stroke-width="10" stroke-linecap="round"/>
<path d="M395.797 337C389.752 341.208 386.012 345.042 381.476 350.4C378.311 354.138 372.355 355.707 369.229 359.4C365.989 363.227 365.901 368.74 363.797 373" stroke="black" stroke-width="10" stroke-linecap="round"/>
<path d="M534.797 371C528.607 357.807 524.794 350.026 514.797 340" stroke="black" stroke-width="10" stroke-linecap="round"/>
<path d="M574.797 351C583.968 344.552 588.797 324.222 588.797 313" stroke="black" stroke-width="10" stroke-linecap="round"/>
<path d="M352.797 390C335.288 380.583 336.096 360.564 333.45 343.086C331.798 332.177 331.797 321.243 331.797 310" stroke="black" stroke-width="10" stroke-linecap="round"/>
<path d="M265.833 308C265.833 333.748 265.225 358.413 268.981 383.702C271.304 399.347 278.145 408.007 285.406 421.454C288.747 427.642 300.87 444.519 308.323 445.595C313.091 446.283 312.695 451.742 318.06 452.946C322.934 454.04 325.135 455.967 327.797 460" stroke="black" stroke-width="10" stroke-linecap="round"/>
<path d="M656.796 301C656.796 326.435 657.146 349.3 645.668 372.125C640.859 381.686 634.936 390.183 629.969 399.785C627.92 403.746 624.471 406.02 622.021 409.564C619.961 412.543 615.026 415.491 613.873 418.356C612.411 421.991 606.264 426.808 603.143 429.025C600.547 430.868 597.394 432.228 594.2 432.581C591.741 432.853 593.074 434.899 591.518 436.137C584.716 441.547 572.331 439.693 563.797 439.693" stroke="black" stroke-width="10" stroke-linecap="round"/>
<path d="M538.797 386C542.117 409.71 548.498 433.277 549.807 457.183C550.476 469.4 555.161 481.456 555.161 493.671C555.161 501.553 558.797 509.213 558.797 517" stroke="black" stroke-width="10" stroke-linecap="round"/>
<path d="M269.581 83.1715C268.142 94.9371 259.122 121.987 270.367 118.73C274.114 117.645 277.071 108.256 280.193 106.08C282.665 104.358 284.748 96.1457 285.597 93.1318C288.185 83.9481 289.845 103.086 289.92 103.59C292.047 117.818 303.819 121.65 306.624 104.586C308.213 94.9206 313.797 86.1944 313.797 76" stroke="black" stroke-width="10" stroke-linecap="round"/>
<path d="M349.883 78C333.505 78.4748 331.797 93.2683 331.797 106.522C331.797 116.757 341.092 119 349.883 119C367.122 119 371.601 82.7587 357.117 78" stroke="black" stroke-width="10" stroke-linecap="round"/>
<path d="M385.513 78.2773C385.513 93.4912 384.693 107.544 382.06 122.096C380.632 129.991 385.452 110.961 385.907 108.217C387.4 99.2161 397.984 69.7143 411.355 78.6738C414.744 80.9442 414.9 93.4855 413.525 97.1132C412.434 99.9919 408.108 104.477 404.845 104.945C402.241 105.319 396.954 102.4 396.954 105.044C396.954 106.651 419.886 119.32 422.797 119.32" stroke="black" stroke-width="10" stroke-linecap="round"/>
<path d="M436.797 80V122" stroke="black" stroke-width="10" stroke-linecap="round"/>
<path d="M464.01 83C456.268 86.9511 434.414 95.94 448.329 104.882C453.815 108.408 459.945 111.014 465.797 114" stroke="black" stroke-width="10" stroke-linecap="round"/>
<path d="M513.797 83V124" stroke="black" stroke-width="10" stroke-linecap="round"/>
<path d="M536.797 126C542.033 124.027 541.979 106.441 542.172 101.2C542.4 95.0072 546.104 87.9742 547.447 81.9C549.424 72.9647 556.721 94.1652 557.302 95.4C559.87 100.864 563.459 107.254 566.359 112.5C575.359 128.774 578.005 113.065 578.005 100.8C578.005 91.0113 579.797 81.3295 579.797 72" stroke="black" stroke-width="10" stroke-linecap="round"/>
<path d="M247.607 156.1C247.607 166.807 248.267 177.739 247.508 188.426C247.184 192.991 245.571 209.366 245.824 195.609C245.975 187.356 247.19 177.201 250.481 169.469C251.701 166.604 255.584 155.213 259.202 154.404C269.417 152.118 270.797 159.936 270.797 167.773C270.797 174.907 258.754 182.136 254.743 174.059" stroke="black" stroke-width="10" stroke-linecap="round"/>
<path d="M290.888 154.835C289.497 168.901 285.57 182.338 285.57 196.41C285.57 213.434 283.797 186.568 283.797 182.026C283.797 173.722 290.354 150.874 300.638 153.16C311.218 155.512 308.362 178.508 299.751 181.041C290.846 183.661 292.913 183.538 299.85 185.967C307.807 188.753 315.408 193.7 322.797 197.396" stroke="black" stroke-width="10" stroke-linecap="round"/>
<path d="M339.321 166.641C338.479 163.641 335.493 168.41 335.046 169.371C333.189 173.359 333.952 178.455 333.952 182.721C333.952 187.983 334.402 195.767 341.111 195.767C349.227 195.767 354.968 197.861 357.317 189.497C358.305 185.978 360.797 185.531 360.797 180.799C360.797 176.065 360.198 175.01 358.112 171.192C353.869 163.423 350.135 163 341.111 163" stroke="black" stroke-width="10" stroke-linecap="round"/>
<path d="M394.019 161.249C393.259 155.209 383.935 163.053 382.332 164.823C377.064 170.643 377.837 173.569 377.837 181.904C377.837 193.378 379.418 205.172 394.019 205.936C406.459 206.586 413.797 202.406 413.797 188.954C413.797 174.32 396.107 186.851 392.221 179.123" stroke="black" stroke-width="10" stroke-linecap="round"/>
<path d="M429.797 212C433.404 211.091 435.028 192.62 435.13 188.709C435.387 178.877 438 173.197 440.068 164.024C443.594 148.39 455.758 152.27 456.464 167.209C456.681 171.815 456.943 176.954 456.464 181.542C455.647 189.358 445.993 186.67 442.636 190.898C442.457 191.124 471.577 203.757 477.797 201.25" stroke="black" stroke-width="10" stroke-linecap="round"/>
<path d="M485.021 167C485.021 177.252 483.601 188.94 487.909 198.691C489.559 202.425 490.797 203.889 490.797 208" stroke="black" stroke-width="10" stroke-linecap="round"/>
<path d="M484.797 171C490.298 168.283 496.799 167 502.797 167" stroke="black" stroke-width="10" stroke-linecap="round"/>
<path d="M483.797 188H508.797" stroke="black" stroke-width="10" stroke-linecap="round"/>
<path d="M490.797 208C500.623 207.782 509.371 205.244 518.797 203" stroke="black" stroke-width="10" stroke-linecap="round"/>
<path d="M553.001 172.019C549.755 168.384 540.399 162.825 540.399 172.019C540.399 182.87 550.736 186.515 552.901 196.216C554.7 204.277 554.709 209.659 544 209.659C541.8 209.659 534.478 210.894 533.198 208.663C531.562 205.814 530.643 203.907 527.797 202.49" stroke="black" stroke-width="10" stroke-linecap="round"/>
<path d="M595.797 174.519C590.722 173.972 579.597 165.876 579.597 176.266C579.597 185.745 587.584 189.581 590.797 198.59C591.895 201.67 594.745 212.803 589.597 212.954C580.685 213.216 573.116 212.604 568.797 204.219" stroke="black" stroke-width="10" stroke-linecap="round"/>
<path d="M421.092 329.456C421.092 322.396 419.277 314.557 424.645 309.744C433.714 301.61 436.086 313.466 435.203 320.595C434.678 324.837 424.645 339.367 424.645 329.058C424.645 323.023 431.666 311.603 436.19 307.952C439.28 305.457 429.973 320.283 429.973 325.872C429.973 330.474 442.232 333.04 446.748 333.04C454.154 333.04 457.094 327.061 460.563 322.686C462.059 320.799 449.511 317.323 449.511 324.179C449.511 336.472 450.447 339.414 463.721 333.936C468.666 331.895 478.442 322.288 466.878 322.288C461.691 322.288 452.391 326.232 461.353 330.451C470.659 334.833 501.216 336.494 492.14 331.646C487.249 329.034 477.93 326.659 477.93 333.936C477.93 337.048 492.03 342 495.692 342C501.894 342 502.797 333.58 502.797 328.56C502.797 320.429 487.112 329.851 485.035 331.248" stroke="#F7D002" stroke-width="10" stroke-linecap="round"/>
<path d="M262.4 22.7639C261.748 24.3817 255.42 38.4204 257.071 36.8825C261.461 32.793 266.504 29.7111 270.886 25.9014C273.91 23.2726 260.348 32.2949 263.189 35.1177C265.05 36.9666 283.788 17.0155 274.834 29.7252C260.862 49.5561 304.377 6.07721 286.478 28.9408C283.409 32.8614 297.816 27.0144 299.603 24.5287C303.19 19.5401 310.434 10.1877 306.807 20.9991" stroke="black" stroke-width="10" stroke-linecap="round"/>
<path d="M399.783 17.0205C397.273 21.8504 392.232 26.2684 399.783 22.5134C402.601 21.1121 414.28 11.8182 413.018 16.2067C412.68 17.3817 408.459 24.3285 410.828 22.31C412.117 21.2125 417.694 16.9388 417.694 18.8514C417.694 20.7396 416.571 26.9734 419.486 24.3444C422.678 21.4648 423.328 25.2461 427.446 21.8013C434.995 15.4876 419.538 40.77 431.626 28.4132C433.283 26.719 442.989 19.1027 441.975 21.4962C440.36 25.3058 434.197 36.0318 435.706 32.1769C438.129 25.9834 445.927 25.5572 449.438 20.1738C449.785 19.6415 444.411 28.0311 442.771 27.1925C438.798 25.1621 455.875 13.3585 443.567 13.3585C437.719 13.3585 430.227 11.9305 424.76 14.3757C420.886 16.1079 418.288 17.0205 414.112 17.0205C413.493 17.0205 446.515 17.0205 435.606 17.0205C429.038 17.0205 422.471 17.0205 415.903 17.0205C413.711 17.0205 401.951 20.6824 408.838 20.6824C416.567 20.6824 424.295 20.6824 432.024 20.6824C436.436 20.6824 443.2 19.3998 446.353 23.4289C448.755 26.4988 458.913 15.1538 461.478 13.7654C463.63 12.6008 465.708 11.0695 467.449 9.28971C471.985 4.6527 463.713 13.9218 462.573 15.0878C458.07 19.6908 455.159 24.4464 449.935 28.0063" stroke="black" stroke-width="10" stroke-linecap="round"/>
<path d="M535.249 12C529.533 12.6248 529.532 17.5415 527.186 21.6948C522.799 29.4623 529.678 27.8642 535.648 27.8642C546.107 27.8642 556.655 27.4834 567.105 27.8642C574.27 28.1253 575.357 28.578 581.041 22.4782C583.08 20.2901 592.169 13.7627 585.023 13.7627C571.717 13.7627 558.411 13.7627 545.105 13.7627C540.4 13.7627 553.69 19.0507 557.548 19.0507C562.89 19.0507 578.536 17.1968 573.575 19.1487C563.671 23.0459 550.525 20.8134 539.729 20.8134C532.142 20.8134 531.183 21.4436 539.829 19.4425C546.621 17.8702 553.206 15.6407 559.539 13.8606C563.786 12.6669 571.086 12.6948 571.086 17.6798C571.086 28.7624 584.91 14.9209 590.797 13.7627" stroke="black" stroke-width="10" stroke-linecap="round"/>
<path d="M649.685 28C647.563 29.9572 626.913 40.6397 630.138 44.0856C632.983 47.1263 637.301 48.3172 639.912 51.2347C644.513 56.3763 647.528 63.1416 655.806 58.3839C658.582 56.7888 661.828 54.7362 663.902 52.1284C665.743 49.8139 670.879 50.1423 673.182 48.0573C678.309 43.4161 670.003 37.2105 665.284 33.759C657.549 28.1012 642.127 35.8692 636.358 40.511C631.944 44.062 657.54 42.2983 659.459 42.2983C664.961 42.2983 658.708 38.2208 655.115 38.823C651.969 39.3504 646.992 45.9437 650.08 49.0503C651.667 50.6458 659.029 49.4474 661.236 49.4474C662.949 49.4474 654.262 53.8706 651.463 54.8093" stroke="black" stroke-width="10" stroke-linecap="round"/>
<path d="M199.843 67C199.843 77.4209 210.797 85.8799 210.797 97.064C210.797 106.471 207.146 114.737 207.146 124.341C207.146 127.193 205.357 139.099 201.263 131.508C198.507 126.398 198.018 119.344 198.018 113.589C198.018 105.524 198.78 92.9924 202.075 85.7153C203.599 82.349 206.939 69.3847 207.146 80.9369C207.297 89.4263 207.146 97.9301 207.146 106.422C207.146 110.272 205.765 136.534 198.423 127.526C191.776 119.37 199.843 109.612 199.843 101.444C199.843 92.8547 198.018 83.622 198.018 75.9595" stroke="black" stroke-width="10" stroke-linecap="round"/>
<path d="M206.797 204.651C198.548 200.803 196.586 190.755 190.011 187.031C188.949 186.429 192.174 194.877 192.479 197.603C193.34 205.284 195.457 212.811 196.133 220.509C196.489 224.576 196.641 242.541 196.231 239.696C195.065 231.598 194.895 219.306 198.305 211.699C203.484 200.148 196.133 225.747 196.133 228.537C196.133 233.576 193.62 234.8 192.677 239.011C191.719 243.284 192.578 229.954 192.578 227.949C192.578 224.265 190.971 221.628 190.801 218.747C190.276 209.901 190.649 222.257 190.899 225.11C192.702 245.662 198.062 226.601 206.797 222.271" stroke="black" stroke-width="10" stroke-linecap="round"/>
<path d="M242.925 273.813C236.178 274.19 230.15 278.118 224.68 281.782C217.03 286.905 221.932 286.364 228.646 286.364C237.882 286.364 246.309 292.997 255.419 293.536C258.524 293.719 260.506 296.978 263.946 293.137C264.95 292.017 264.936 283.873 263.55 283.176C258.603 280.692 251.543 284.633 246.494 282.38C244.87 281.654 232.081 275.471 235.785 279.192C242.427 285.863 255.638 284.571 264.343 284.571C266.382 284.571 274.163 281.275 271.086 277.798C269.855 276.407 262.526 274.055 260.377 273.415C254.688 271.722 249.219 272.02 243.321 272.02C235.718 272.02 240.15 273.038 244.71 275.208C248.136 276.838 252.419 276.202 255.419 277.798C259.016 279.711 259.27 282.778 264.343 282.778" stroke="black" stroke-width="10" stroke-linecap="round"/>
<path d="M343.989 279.6C339.559 285.826 333.378 292.138 327.979 297.6C323.153 302.484 321.061 303 329.758 303C341.321 303 352.883 303 364.445 303C370.479 303 373.91 290.805 374.229 285C374.663 277.086 364.894 276 358.22 276C351.049 276 349.577 279.059 344.78 284.2C342.68 286.45 333.003 296.652 340.53 295.7C348.463 294.697 352.089 288.249 358.22 284.6C359.113 284.068 360.554 280.26 361.382 280.4C362.515 280.591 360.46 282.547 359.801 283.5C357.457 286.888 355.386 290.455 352.982 293.8C342.048 309.013 364.301 302.139 365.335 292.2C365.968 286.112 369.631 292.67 373.34 290.3C382.005 284.762 376.334 285 370.671 285" stroke="black" stroke-width="10" stroke-linecap="round"/>
<path d="M470.721 282.851C466.563 288.1 460.552 295.733 457.859 301.765C457.097 303.472 454.279 303.909 456.87 303.909C459.706 303.909 462.542 303.909 465.378 303.909C475.074 303.909 488.936 306.427 498.225 303.812C500.662 303.126 501.483 287.601 503.666 283.728C507.249 277.373 501.645 279.341 496.246 279.341C490.643 279.341 484.967 277.182 484.967 283.728C484.967 287.127 481.486 291.887 480.021 295.135C477.563 300.585 481.621 294.137 479.229 292.015C475.345 288.57 466.763 295.135 473.392 295.135C476.848 295.135 480.403 289.663 477.448 286.75C473.536 282.895 469.609 292.915 470.919 295.817C473.595 301.751 489.215 290.256 491.101 287.335C493.863 283.06 492.454 292.86 491.695 294.355C491.321 295.091 486.989 297.206 487.935 298.255C490.091 300.645 491.779 297.525 492.19 296.11C493.31 292.246 499.214 293.221 499.214 288.115" stroke="black" stroke-width="10" stroke-linecap="round"/>
<path d="M568.814 283C565.123 290.025 560.05 295.181 556.831 302.594C556.199 304.05 564.513 301.137 565.965 300.912C568.872 300.461 572.063 300.813 575.002 300.813C582.084 300.813 586.583 304.522 588.359 294.677C588.927 291.53 591.797 292.103 591.797 288.344C591.797 283.531 586.601 284.781 582.957 284.781C578.569 284.781 572.371 294.699 576.278 298.636C579.075 301.454 584.466 293.076 586.395 292.104C591.923 289.319 585.926 290.488 582.859 289.136C578.662 287.285 575.607 286.204 570.975 286.563C569.636 286.666 563.706 291.608 563.706 292.896C563.706 299.917 582.959 297.25 586.493 297.25" stroke="black" stroke-width="10" stroke-linecap="round"/>
<path d="M625.797 263.378C628.09 267.452 642.118 290.951 646.675 291.95C651.324 292.97 664.252 277.934 666.544 275.026C669.01 271.896 672.797 267.002 672.797 262.482C672.797 259.523 661.855 255.519 659.383 253.621C655.407 250.569 653.849 245.63 651.213 241.077C650.414 239.696 638.707 257.363 638.707 261.187C638.707 262.192 642.081 254.119 642.539 252.625C644.634 245.803 645.767 255.084 645.767 257.006C645.767 258.802 645.27 270.37 646.574 267.957C648.104 265.124 649.821 259.382 652.625 257.404C656.951 254.354 650.804 268.164 647.582 272.338C646.32 273.973 644.53 278.994 646.17 273.731C648.482 266.314 646.541 277.649 653.432 268.754C655.201 266.47 657.18 264.386 658.072 261.585C658.238 261.061 658.744 256.865 659.887 257.006C660.902 257.131 660.29 269.089 660.29 270.546C660.29 275.634 660.536 274.908 660.29 270.546C660.108 267.306 656.632 270.448 654.844 270.546C651.951 270.704 650.169 270.287 647.582 269.152C645.868 268.4 642.136 265.907 642.136 267.758C642.136 270.903 649.52 277.956 651.213 281.298" stroke="black" stroke-width="10" stroke-linecap="round"/>
<path d="M658.673 140.591C663.995 140.591 665.182 136.261 669.875 135.192C670.276 135.1 677.452 131.1 677.63 130.872C686.903 118.986 684.523 147.543 684.523 152.077C684.523 156.187 684.777 170.304 679.353 170.631C670.01 171.194 669.904 165.177 666.907 158.261C665.688 155.449 663.843 151.648 663.843 148.543C663.843 147.458 662.966 160.856 663.939 164.348C664.366 165.883 663.843 149.764 663.843 146.972C663.843 138.982 660.544 172.266 668.151 170.533C671.178 169.843 674.518 158.813 675.906 155.611C677.663 151.557 680.03 149.608 681.842 145.892C682.971 143.576 684.523 136.038 684.523 138.628C684.523 146.808 684.523 154.989 684.523 163.17C684.523 164.614 684.523 151.234 684.523 147.659C684.523 138.351 679.781 142.018 677.247 149.033C671.976 163.626 677.342 124.478 671.694 145.99C670.437 150.777 669.013 161.897 669.013 150.31C669.013 141.256 664.615 143.765 663.939 151.39C662.082 172.328 663.843 134.843 663.843 165.33C663.843 170.024 664.083 174.783 663.843 179.466C663.627 183.679 662.12 172.48 662.12 170.631C662.12 158.626 653.36 168.693 660.779 175.539C665.221 179.638 674.713 177.019 677.63 183" stroke="black" stroke-width="10" stroke-linecap="round"/>
<path d="M656.797 178C664.37 178 666.691 178.773 672.593 181.889C678.237 184.868 680.716 185 672.593 185" stroke="black" stroke-width="10" stroke-linecap="round"/>
<path d="M76.3453 430.788C76.3453 424.791 77.159 418.191 76.2462 412.258C75.6216 408.198 71.6096 405.323 70.9944 400.862C70.4334 396.795 66.2824 395.031 64.8508 391.35C63.3737 387.552 62.703 383.041 61.6799 379.062C58.3836 366.244 56.2957 337.788 68.8144 329.121C86.1487 317.12 107.523 315.708 123.116 331.301C135.832 344.017 133.421 361.184 133.421 378.072C133.421 382.788 126.614 393.802 123.512 397.791C121.104 400.887 114.837 405.151 113.702 407.799C111.795 412.25 106.667 416.022 106.667 421.077C106.667 426.956 106.667 432.836 106.667 438.715C106.667 448.431 101.251 455.758 89.7225 455.758C73.8763 455.758 76.3453 439.765 76.3453 427.22" stroke="black" stroke-width="10" stroke-linecap="round"/>
<path d="M76.3452 427.22C80.5654 427.748 84.7215 429.004 89.7224 429.004C97.4509 429.004 97.5181 430.634 103.1 434.355" stroke="black" stroke-width="10" stroke-linecap="round"/>
<path d="M103.1 437.922C93.0562 448.593 87.6651 440.907 78.1289 436.139" stroke="black" stroke-width="10" stroke-linecap="round"/>
<path d="M94.1813 423.653C92.3259 406.954 93.4437 394.683 97.3522 378.071C99.2517 369.999 92.4965 367.667 87.4432 362.613C80.0538 355.224 88.3275 349.432 95.9649 356.668C98.6424 359.204 100.142 360.932 99.5322 364.793C98.4788 371.465 89.8256 368.988 97.7486 372.324C104.456 375.148 108.923 382.191 98.7395 384.81C89.1248 387.282 84.9769 391.822 95.9649 398.286C100.951 401.219 95.9649 416.875 95.9649 421.869" stroke="black" stroke-width="10" stroke-linecap="round"/>
<path d="M24.6199 364.794C18.0113 364.285 11.523 362.313 5 361.226" stroke="black" stroke-width="10" stroke-linecap="round"/>
<path d="M78.1289 270.261V288.098" stroke="black" stroke-width="10" stroke-linecap="round"/>
<path d="M170.877 359.443C178.051 359.443 180.817 357.913 186.93 355.875" stroke="black" stroke-width="10" stroke-linecap="round"/>
<path d="M138.772 291.665C142.271 286.926 149.474 280.293 149.474 273.828" stroke="black" stroke-width="10" stroke-linecap="round"/>
<path d="M35.3217 311.284C30.8827 307.023 21.9556 304.172 19.269 298.799" stroke="black" stroke-width="10" stroke-linecap="round"/>
<path d="M727.2 330.118C727.2 328.045 725.52 314.331 729.02 314.131C734.135 313.837 739.367 314.131 744.49 314.131C755.401 314.131 750.86 330.287 750.86 339" stroke="black" stroke-width="10" stroke-linecap="round"/>
<path d="M767.938 342.287C769.521 340.935 778.922 330.74 781.303 333.217C784.783 336.837 787.889 340.927 791.15 344.744C798.095 352.875 782.87 360.028 776.218 365.71" stroke="black" stroke-width="10" stroke-linecap="round"/>
<path d="M727.621 360.786C715.926 361.152 705.025 385.67 711.973 396.113C718.52 405.952 732.041 405.919 741.091 399.685C748.94 394.278 750.797 378.912 750.797 369.717C750.797 362.044 735.443 359 729.404 359" stroke="black" stroke-width="10" stroke-linecap="round"/>
<path d="M714.44 337.585C711.15 335.743 709.841 330.416 706.539 328.599C697.582 323.67 698.66 330.134 691.162 334.33C689.237 335.407 689.04 339.462 687.831 341.212C687.014 342.394 680.794 346.64 683.249 348.014C687.072 350.154 689.415 354.37 693.473 356.019" stroke="black" stroke-width="10" stroke-linecap="round"/>
<path d="M693.626 408.924C689.207 411.914 673.948 419.8 678.043 424.952C680.687 428.28 686.963 435.076 690.576 436.06C694.586 437.151 699.723 443.189 705.025 441.359C709.323 439.876 717.916 426.077 717.219 421.541" stroke="black" stroke-width="10" stroke-linecap="round"/>
<path d="M728.154 425.58C729.472 428.135 735.876 444.868 739.837 445.498C743.606 446.097 750.445 440.782 754.057 438.728C758.989 435.923 764.142 435.655 763.706 428.523C763.457 424.448 760.999 419.664 758.298 417.73" stroke="black" stroke-width="10" stroke-linecap="round"/>
<path d="M764.05 408.837C766.92 408.993 784.593 411.941 787.142 408.844C789.566 405.897 788.445 397.308 788.502 393.153C788.58 387.48 790.957 382.901 784.586 379.666C780.945 377.818 775.575 377.515 772.54 378.866" stroke="black" stroke-width="10" stroke-linecap="round"/>
<path d="M691.218 365.606C688.39 366.118 670.514 367.338 668.752 370.941C667.075 374.369 670.153 382.465 671.058 386.52C672.295 392.058 671.042 397.063 677.989 398.736C681.958 399.692 687.252 398.743 689.893 396.727" stroke="black" stroke-width="10" stroke-linecap="round"/>
<path d="M392.797 334.557C401.16 329.036 406.886 316.099 413.232 308.161C418.601 301.444 426.379 296.284 434.555 293.301C447.301 288.65 453.165 297.084 451.338 308.845C450.96 311.275 444.865 314.945 442.552 315.2C435.882 315.934 456.378 309.413 458.742 308.552C470.273 304.354 486.975 302.635 486.975 320.479C486.975 327.693 485.106 324.288 490.727 320.577C493.948 318.45 506.036 316.676 508.99 320.577C514.379 327.692 521.969 335.026 511.754 340.717C500.155 347.178 485.681 349.976 471.97 346.485C457.412 342.777 442.625 338.978 428.139 334.948C418.106 332.158 409.549 327.183 399.905 323.999" stroke="black" stroke-width="10" stroke-linecap="round"/>
<path d="M716.797 332H725.797" stroke="black" stroke-width="10" stroke-linecap="round"/>
<path d="M753.797 338C757.331 338 761.34 341.346 763.797 344" stroke="black" stroke-width="10" stroke-linecap="round"/>
<path d="M773.797 369C773.797 372.088 773.415 374.172 772.797 377" stroke="black" stroke-width="10" stroke-linecap="round"/>
<path d="M695.797 358C695.598 360.092 693.761 363.313 692.797 365" stroke="black" stroke-width="10" stroke-linecap="round"/>
<path d="M689.797 399C691.32 400.632 690.331 402.715 692.197 403.825C693.259 404.457 695.355 406.158 695.797 407" stroke="black" stroke-width="10" stroke-linecap="round"/>
<path d="M719.797 423H730.797" stroke="black" stroke-width="10" stroke-linecap="round"/>
<path d="M763.797 408C759.203 408 759.456 411.666 755.797 413" stroke="black" stroke-width="10" stroke-linecap="round"/>
<path d="M728.576 362C722.225 362.69 719.008 377.11 718.807 382.025C718.572 387.763 722.318 399 729.797 399" stroke="black" stroke-width="10" stroke-linecap="round"/>
<path d="M713.797 388C716.353 390.337 717.6 392.685 720.797 394" stroke="black" stroke-width="10" stroke-linecap="round"/>
<path d="M91.7969 227C93.012 202.942 93.4635 178.964 93.4635 154.884C93.4635 147.356 92.9322 139.619 94.2969 132.184C95.1096 127.756 95.1302 123.493 95.1302 119.012C95.1302 113.049 98.4707 115.451 102.723 113.501C113.813 108.415 134.616 112.66 146.797 112.66" stroke="black" stroke-width="10" stroke-linecap="round"/>
<path d="M716.797 129.804C723.953 129.804 739.797 125.9 739.797 135.3C739.797 160.266 738.154 185.094 738.154 210.006C738.154 231.381 734.868 252.721 734.868 274" stroke="black" stroke-width="10" stroke-linecap="round"/>
<path d="M154.797 416C159.326 432.335 158.645 452.712 158.645 469.6C158.645 475.656 157.275 479.171 163.777 479.171C179.099 479.171 194.422 479.171 209.745 479.171C233.738 479.171 258.502 477.206 281.797 483" stroke="black" stroke-width="10" stroke-linecap="round"/>
<path d="M605.797 481.817C636.565 481.817 666.588 483.8 697.029 483.8C704.965 483.8 708.797 485.861 708.797 476.748C708.797 471.165 708.797 465.583 708.797 460" stroke="black" stroke-width="10" stroke-linecap="round"/>
<path d="M220.797 468C222.116 469.173 236.783 481.788 235.744 482.957C232.204 486.943 222.429 489.733 220.797 493" stroke="black" stroke-width="10" stroke-linecap="round"/>
<path d="M657.797 472C661.826 474.115 675.797 478.728 675.797 482.792C675.797 487.461 668.607 489.311 665.797 493" stroke="black" stroke-width="10" stroke-linecap="round"/>
<path d="M729.797 190C729.797 186.885 736.555 169.69 738.664 169.227C750.605 166.608 749.652 187.461 754.797 190" stroke="black" stroke-width="10" stroke-linecap="round"/>
<path d="M79.7969 144C81.6297 149.042 88.9442 166.85 96.0362 164.843C97.8509 164.33 104.797 146.243 104.797 144" stroke="black" stroke-width="10" stroke-linecap="round"/>
</svg>
